<?xml version="1.0" encoding="UTF-8"?>
<svg width="1000px" height="1000px" viewBox="0 0 1000 1000" version="1.1" xmlns="http://www.w3.org/2000/svg" xmlns:xlink="http://www.w3.org/1999/xlink">
    <!-- Generator: Sketch 62 (91390) - https://sketch.com -->
    <title>Artboard</title>
    <desc>Created with Sketch.</desc>
    <g id="Artboard" stroke="none" stroke-width="1" fill="none" fill-rule="evenodd">
        <g id="Group" transform="translate(500.500000, 499.500000) rotate(-45.000000) translate(-500.500000, -499.500000) translate(383.000000, -234.000000)">
            <rect id="Rectangle" fill="#D56062" x="0" y="294" width="80" height="46"></rect>
            <rect id="Rectangle" fill="#067BC2" x="176" y="147" width="59" height="46"></rect>
            <rect id="Rectangle" fill="#84BCDA" x="213" y="98" width="22" height="46"></rect>
            <rect id="Rectangle" fill="#ECC30B" x="0" y="49" width="91" height="46"></rect>
            <rect id="Rectangle" fill="#F37748" x="0" y="147" width="59" height="46"></rect>
            <rect id="Rectangle" fill="#067BC2" x="176" y="343" width="59" height="46"></rect>
            <rect id="Rectangle" fill="#F37748" x="140" y="49" width="43" height="46"></rect>
            <rect id="Rectangle" fill="#067BC2" x="0" y="343" width="51" height="46"></rect>
            <rect id="Rectangle" fill="#84BCDA" x="104" y="147" width="69" height="46"></rect>
            <rect id="Rectangle" fill="#067BC2" x="37" y="98" width="43" height="46"></rect>
            <rect id="Rectangle" fill="#F37748" x="112" y="245" width="123" height="46"></rect>
            <rect id="Rectangle" fill="#84BCDA" x="108" y="-2.84217094e-14" width="127" height="46"></rect>
            <rect id="Rectangle" fill="#067BC2" x="119" y="196" width="72" height="46"></rect>
            <rect id="Rectangle" fill="#D56062" x="83" y="98" width="127" height="46"></rect>
            <rect id="Rectangle" fill="#067BC2" x="71" y="0" width="34" height="46"></rect>
            <rect id="Rectangle" fill="#84BCDA" x="0" y="245" width="34" height="46"></rect>
            <rect id="Rectangle" fill="#D56062" x="0" y="196" width="75" height="46"></rect>
            <rect id="Rectangle" fill="#ECC30B" x="115" y="343" width="58" height="46"></rect>
            <rect id="Rectangle" fill="#84BCDA" x="0" y="98" width="34" height="46"></rect>
            <rect id="Rectangle" fill="#ECC30B" x="37" y="245" width="72" height="46"></rect>
            <rect id="Rectangle" fill="#ECC30B" x="63" y="147" width="38" height="46"></rect>
            <rect id="Rectangle" fill="#067BC2" x="83" y="294" width="47" height="46"></rect>
            <rect id="Rectangle" fill="#D0021B" x="78" y="196" width="38" height="46"></rect>
            <rect id="Rectangle" fill="#D56062" x="133" y="294" width="47" height="46"></rect>
            <rect id="Rectangle" fill="#D56062" x="94" y="49" width="43" height="46"></rect>
            <rect id="Rectangle" fill="#ECC30B" x="183" y="294" width="52" height="46"></rect>
            <rect id="Rectangle" fill="#84BCDA" x="194" y="196" width="41" height="46"></rect>
            <rect id="Rectangle" fill="#F37748" x="78" y="196" width="38" height="46"></rect>
            <rect id="Rectangle" fill="#84BCDA" x="54" y="343" width="58" height="46"></rect>
            <rect id="Rectangle" fill="#F37748" x="0" y="392" width="68" height="46"></rect>
            <rect id="Rectangle" fill="#D56062" x="0" y="686" width="80" height="46"></rect>
            <rect id="Rectangle" fill="#067BC2" x="176" y="539" width="59" height="46"></rect>
            <rect id="Rectangle" fill="#84BCDA" x="213" y="490" width="22" height="46"></rect>
            <rect id="Rectangle" fill="#ECC30B" x="-1.13686838e-13" y="441" width="91" height="46"></rect>
            <rect id="Rectangle" fill="#F37748" x="0" y="539" width="59" height="46"></rect>
            <rect id="Rectangle" fill="#F37748" x="140" y="441" width="43" height="46"></rect>
            <rect id="Rectangle" fill="#84BCDA" x="104" y="539" width="69" height="46"></rect>
            <rect id="Rectangle" fill="#067BC2" x="37" y="490" width="43" height="46"></rect>
            <rect id="Rectangle" fill="#F37748" x="112" y="637" width="123" height="46"></rect>
            <rect id="Rectangle" fill="#84BCDA" x="108" y="392" width="127" height="46"></rect>
            <rect id="Rectangle" fill="#067BC2" x="119" y="588" width="72" height="46"></rect>
            <rect id="Rectangle" fill="#D56062" x="83" y="490" width="127" height="46"></rect>
            <rect id="Rectangle" fill="#067BC2" x="71" y="392" width="34" height="46"></rect>
            <rect id="Rectangle" fill="#84BCDA" x="0" y="637" width="34" height="46"></rect>
            <rect id="Rectangle" fill="#D56062" x="0" y="588" width="75" height="46"></rect>
            <rect id="Rectangle" fill="#84BCDA" x="0" y="490" width="34" height="46"></rect>
            <rect id="Rectangle" fill="#ECC30B" x="37" y="637" width="72" height="46"></rect>
            <rect id="Rectangle" fill="#ECC30B" x="63" y="539" width="38" height="46"></rect>
            <rect id="Rectangle" fill="#067BC2" x="83" y="686" width="47" height="46"></rect>
            <rect id="Rectangle" fill="#D0021B" x="78" y="588" width="38" height="46"></rect>
            <rect id="Rectangle" fill="#D56062" x="133" y="686" width="47" height="46"></rect>
            <rect id="Rectangle" fill="#D56062" x="94" y="441" width="43" height="46"></rect>
            <rect id="Rectangle" fill="#ECC30B" x="183" y="686" width="52" height="46"></rect>
            <rect id="Rectangle" fill="#84BCDA" x="194" y="588" width="41" height="46"></rect>
            <rect id="Rectangle" fill="#F37748" x="78" y="588" width="38" height="46"></rect>
            <rect id="Rectangle" fill="#ECC30B" x="186" y="441" width="49" height="46"></rect>
            <rect id="Rectangle" fill="#F37748" x="1.13686838e-13" y="735" width="68" height="46"></rect>
            <rect id="Rectangle" fill="#067BC2" x="176" y="882" width="59" height="46"></rect>
            <rect id="Rectangle" fill="#84BCDA" x="213" y="833" width="22" height="46"></rect>
            <rect id="Rectangle" fill="#ECC30B" x="1.13686838e-13" y="784" width="91" height="46"></rect>
            <rect id="Rectangle" fill="#F37748" x="1.13686838e-13" y="882" width="59" height="46"></rect>
            <rect id="Rectangle" fill="#F37748" x="140" y="784" width="43" height="46"></rect>
            <rect id="Rectangle" fill="#84BCDA" x="104" y="882" width="69" height="46"></rect>
            <rect id="Rectangle" fill="#067BC2" x="37" y="833" width="43" height="46"></rect>
            <rect id="Rectangle" fill="#84BCDA" x="108" y="735" width="127" height="46"></rect>
            <rect id="Rectangle" fill="#067BC2" x="119" y="931" width="72" height="46"></rect>
            <rect id="Rectangle" fill="#D56062" x="83" y="833" width="127" height="46"></rect>
            <rect id="Rectangle" fill="#067BC2" x="71" y="735" width="34" height="46"></rect>
            <rect id="Rectangle" fill="#D56062" x="1.13686838e-13" y="931" width="75" height="46"></rect>
            <rect id="Rectangle" fill="#84BCDA" x="1.13686838e-13" y="833" width="34" height="46"></rect>
            <rect id="Rectangle" fill="#ECC30B" x="63" y="882" width="38" height="46"></rect>
            <rect id="Rectangle" fill="#D0021B" x="78" y="931" width="38" height="46"></rect>
            <rect id="Rectangle" fill="#D56062" x="94" y="784" width="43" height="46"></rect>
            <rect id="Rectangle" fill="#84BCDA" x="194" y="931" width="41" height="46"></rect>
            <rect id="Rectangle" fill="#F37748" x="78" y="931" width="38" height="46"></rect>
            <rect id="Rectangle" fill="#ECC30B" x="186" y="784" width="49" height="46"></rect>
            <rect id="Rectangle" fill="#D56062" x="1.13686838e-13" y="1029" width="80" height="46"></rect>
            <rect id="Rectangle" fill="#067BC2" x="176" y="1078" width="59" height="46"></rect>
            <rect id="Rectangle" fill="#067BC2" x="1.13686838e-13" y="1078" width="51" height="46"></rect>
            <rect id="Rectangle" fill="#F37748" x="112" y="980" width="123" height="46"></rect>
            <rect id="Rectangle" fill="#84BCDA" x="1.13686838e-13" y="980" width="34" height="46"></rect>
            <rect id="Rectangle" fill="#ECC30B" x="115" y="1078" width="58" height="46"></rect>
            <rect id="Rectangle" fill="#ECC30B" x="37" y="980" width="72" height="46"></rect>
            <rect id="Rectangle" fill="#067BC2" x="83" y="1029" width="47" height="46"></rect>
            <rect id="Rectangle" fill="#D56062" x="133" y="1029" width="47" height="46"></rect>
            <rect id="Rectangle" fill="#ECC30B" x="183" y="1029" width="52" height="46"></rect>
            <rect id="Rectangle" fill="#84BCDA" x="54" y="1078" width="58" height="46"></rect>
            <rect id="Rectangle" fill="#F37748" x="1.13686838e-13" y="1127" width="68" height="46"></rect>
            <rect id="Rectangle" fill="#067BC2" x="176" y="1274" width="59" height="46"></rect>
            <rect id="Rectangle" fill="#84BCDA" x="213" y="1225" width="22" height="46"></rect>
            <rect id="Rectangle" fill="#ECC30B" x="0" y="1176" width="91" height="46"></rect>
            <rect id="Rectangle" fill="#F37748" x="1.13686838e-13" y="1274" width="59" height="46"></rect>
            <rect id="Rectangle" fill="#F37748" x="140" y="1176" width="43" height="46"></rect>
            <rect id="Rectangle" fill="#84BCDA" x="104" y="1274" width="69" height="46"></rect>
            <rect id="Rectangle" fill="#067BC2" x="37" y="1225" width="43" height="46"></rect>
            <rect id="Rectangle" fill="#F37748" x="112" y="1372" width="123" height="46"></rect>
            <rect id="Rectangle" fill="#84BCDA" x="108" y="1127" width="127" height="46"></rect>
            <rect id="Rectangle" fill="#067BC2" x="119" y="1323" width="72" height="46"></rect>
            <rect id="Rectangle" fill="#D56062" x="83" y="1225" width="127" height="46"></rect>
            <rect id="Rectangle" fill="#067BC2" x="71" y="1127" width="34" height="46"></rect>
            <rect id="Rectangle" fill="#D56062" x="1.13686838e-13" y="1323" width="75" height="46"></rect>
            <rect id="Rectangle" fill="#84BCDA" x="1.13686838e-13" y="1225" width="34" height="46"></rect>
            <rect id="Rectangle" fill="#ECC30B" x="37" y="1372" width="72" height="46"></rect>
            <rect id="Rectangle" fill="#ECC30B" x="63" y="1274" width="38" height="46"></rect>
            <rect id="Rectangle" fill="#067BC2" x="83" y="1421" width="47" height="46"></rect>
            <rect id="Rectangle" fill="#D0021B" x="78" y="1323" width="38" height="46"></rect>
            <rect id="Rectangle" fill="#D56062" x="133" y="1421" width="47" height="46"></rect>
            <rect id="Rectangle" fill="#D56062" x="94" y="1176" width="43" height="46"></rect>
            <rect id="Rectangle" fill="#84BCDA" x="194" y="1323" width="41" height="46"></rect>
            <rect id="Rectangle" fill="#F37748" x="78" y="1323" width="38" height="46"></rect>
            <rect id="Rectangle" fill="#ECC30B" x="186" y="1176" width="49" height="46"></rect>
        </g>
    </g>
</svg>