<?xml version="1.0" encoding="UTF-8"?>
<svg width="235px" height="406px" viewBox="0 0 235 406" version="1.1" xmlns="http://www.w3.org/2000/svg" xmlns:xlink="http://www.w3.org/1999/xlink">
    <!-- Generator: Sketch 62 (91390) - https://sketch.com -->
    <title>Artboard</title>
    <desc>Created with Sketch.</desc>
    <g id="Artboard" stroke="none" stroke-width="1" fill="none" fill-rule="evenodd">
        <rect id="Rectangle" fill="#84BCDA" x="0" y="0" width="52" height="21"></rect>
        <rect id="Rectangle" fill="#067BC2" x="176" y="0" width="59" height="21"></rect>
        <rect id="Rectangle" fill="#D56062" x="130" y="0" width="43" height="21"></rect>
        <rect id="Rectangle" fill="#ECC30B" x="55" y="0" width="72" height="21"></rect>
        <rect id="Rectangle" fill="#F37748" x="0" y="24" width="68" height="46"></rect>
        <rect id="Rectangle" stroke="#979797" fill="#D56062" x="-5" y="318" width="85" height="46"></rect>
        <rect id="Rectangle" fill="#067BC2" x="176" y="171" width="68" height="46"></rect>
        <rect id="Rectangle" fill="#84BCDA" x="213" y="122" width="68" height="46"></rect>
        <rect id="Rectangle" fill="#ECC30B" x="0" y="73" width="91" height="46"></rect>
        <rect id="Rectangle" fill="#F37748" x="0" y="171" width="59" height="46"></rect>
        <rect id="Rectangle" fill="#067BC2" x="176" y="367" width="59" height="46"></rect>
        <rect id="Rectangle" fill="#F37748" x="140" y="73" width="43" height="46"></rect>
        <rect id="Rectangle" fill="#067BC2" x="-17" y="367" width="68" height="46"></rect>
        <rect id="Rectangle" fill="#84BCDA" x="104" y="171" width="69" height="46"></rect>
        <rect id="Rectangle" fill="#067BC2" x="37" y="122" width="43" height="46"></rect>
        <rect id="Rectangle" fill="#F37748" x="112" y="269" width="126" height="46"></rect>
        <rect id="Rectangle" fill="#84BCDA" x="108" y="24" width="127" height="46"></rect>
        <rect id="Rectangle" fill="#067BC2" x="119" y="220" width="72" height="46"></rect>
        <rect id="Rectangle" fill="#D56062" x="83" y="122" width="127" height="46"></rect>
        <rect id="Rectangle" fill="#067BC2" x="71" y="24" width="34" height="46"></rect>
        <rect id="Rectangle" fill="#84BCDA" x="0" y="269" width="34" height="46"></rect>
        <rect id="Rectangle" fill="#D56062" x="0" y="220" width="75" height="46"></rect>
        <rect id="Rectangle" fill="#ECC30B" x="115" y="367" width="58" height="46"></rect>
        <rect id="Rectangle" fill="#84BCDA" x="0" y="122" width="34" height="46"></rect>
        <rect id="Rectangle" fill="#ECC30B" x="37" y="269" width="72" height="46"></rect>
        <rect id="Rectangle" fill="#ECC30B" x="63" y="171" width="38" height="46"></rect>
        <rect id="Rectangle" fill="#067BC2" x="83" y="318" width="47" height="46"></rect>
        <rect id="Rectangle" fill="#D0021B" x="78" y="220" width="38" height="46"></rect>
        <rect id="Rectangle" fill="#D56062" x="133" y="318" width="47" height="46"></rect>
        <rect id="Rectangle" fill="#D56062" x="94" y="73" width="43" height="46"></rect>
        <rect id="Rectangle" fill="#ECC30B" x="183" y="318" width="61" height="46"></rect>
        <rect id="Rectangle" fill="#84BCDA" x="194" y="220" width="61" height="46"></rect>
        <rect id="Rectangle" fill="#F37748" x="78" y="220" width="38" height="46"></rect>
        <rect id="Rectangle" fill="#ECC30B" x="186" y="73" width="52" height="46"></rect>
        <rect id="Rectangle" fill="#84BCDA" x="54" y="367" width="58" height="46"></rect>
    </g>
</svg>