<svg height="1089" viewBox="0 0 2561 1089" width="2561" xmlns="http://www.w3.org/2000/svg"><path d="m2558.563 544.665c.592.192.952.308 1.062.343l1.222-3.808c-.174-.056-.987-.318-2.367-.767l-1.671-84.743c.75.27 1.502.547 2.252.817l1.351-3.763c-124.083-44.596-248.978-96.136-376.554-155.446l-.034-1.243-2.494.068c-24.713-11.506-49.526-23.297-74.456-35.395l-.031-1.164-2.251.061c-94.299-45.815-190.246-95.898-288.587-150.604.322-.715.688-1.408 1.152-2.039-.247-.151-.495-.302-.742-.453.28-2.259.6-4.499.96-6.758-2.699-2.579-6.818-4.539-7.018-8.718-3.539-18.896.02-39.191-8.538-57.046-2.26-10.477-2.08-21.395-4.059-31.972-.101-.021-.369-1.217-.369-1.217l-3.834.319c-.412-.09-14.343 1.195-14.343 1.195 1.54 7.358 5.809 22.258 1.471 35.094-5.859 19.076-3.199 39.231-4.939 58.746-11.12 12.537-18.6 12.422-81.692 36.92-10.29 3.996-23.442 6.599-32.581 12.848-1.04-7.578-.94-15.236-1.18-22.855-.26-8.178-2.779-16.036-4.039-24.074-1.082-8.608-3.919-6.763-6.118-26.866l1.522-19.781-17.386-.285s1.064 17.698 1.1 17.696c-.956 8.719-1.432 17.5-4.192 25.896-4.059 16.016-1.799 32.572-3.279 48.788-9.743 13.999-36.5 20.951-52.307 26.234-43.694 20.033-164.397 60.675-173.059 64.305 0 0-233.104 81.927-668.7 161.262-373.424 62.433-534.71 66.54-665.441 77.182-.011-.058-.021-.117-.032-.176-6.051.872-9.758-.337-11.715-.487.011.107.018.215.03.322-18.675-.6-37.211 1.58-55.827 2.239v12.377c20.655-.36 41.23-2 61.825-3.039 4.781-1.405 9.63-2.391 14.52-3.114l.287 20.201c-4.543.346-9.077.797-13.587 1.529-.8-4.179-1.6-8.358-2.479-12.517-2.319.6-4.759.88-7.018 1.8-2.699 2.779-3.119 6.958-4.479 10.457-16.256 2.399-32.692 3.139-49.069 4.359v8.158c16.997-2.959 34.333-3.019 51.469-4.519.54 7.918.6 15.856.32 23.794-17.256.64-34.532.2-51.789.28v21.055c14.697.76 29.394 1.12 44.11.92-3.339 5.359-6.498 10.937-11.017 15.436-10.937 1.56-22.075.26-33.093.54v77.861c.074.005 303.9 6.43 344.099 8.178-.14-1.2-.44-3.559-.58-4.739-3.099-2.22-6.099-4.559-8.918-7.118 9.978.02 19.935 1.46 29.633 3.819-4.699 1.28-9.498 2.04-14.317 2.719 0 1.3-.02 3.899-.02 5.219 7.998.26 15.976.34 23.974.12 16.056-.4 31.992 2.279 48.049 1.96 18.456-.16 36.911.18 55.367.76 23.494 2.959 47.309-.48 70.803 2.619 23.874 1.36 47.829.3 71.743.6.12-4.339-4.579-11.037.72-13.457 9.838-1.66 19.935-.2 29.873-.38-.1 3.059-.18 6.119-.28 9.198-9.438.14-18.875.68-28.293.84 0 1.42.02 4.279.02 5.699 13.917.16 27.853.22 41.75.74 20.655 2.519 41.47.92 62.205 1.3v-5.559c-6.818-.16-14.156.14-19.775-4.419 12.197-3.519 24.954.46 36.911 3.279-4.419.42-8.818.66-13.217.96.06 2.499.12 5.019.2 7.538 20.875.96 41.83-.94 62.625 1.58 10.358 1.02 20.775.62 31.153.28-.02-1.52-.04-4.539-.06-6.058-9.098-.8-18.236-1.2-27.253-2.659 8.698-10.698 24.454-7.598 36.471-6.458-1.54 5.638-4.719 10.537-7.918 15.336 12.377.12 24.754.2 37.051 1.68 9.378-.46 18.736-1.02 28.133-.82-1.18-3.499-2.419-6.958-3.579-10.457 11.757-1.28 23.354 1.38 34.292 5.579-9.658.32-19.335.26-28.993.46.02 1.42.08 4.239.1 5.659 21.395 2.759 43.05.7 64.465 3.119 8.498.78 17.036.14 25.514-.68-.14-1.26-.42-3.759-.56-5.019-2.739-1.44-8.738-.58-7.458-5.179 9.978-3.739 20.815-4.659 31.392-3.659.1 2.859.18 5.759.26 8.658-3.299.48-6.578.94-9.858 1.42.02 1.36.02 4.119.02 5.499 13.797.58 27.673-.72 41.43 1.04 12.117 1.54 24.394 1.04 36.591.88 0-1.32-.02-3.959-.02-5.279-5.259-.5-10.617-1.08-15.336-3.619 11.017-5.559 23.274-2.259 34.252 1.42-1.72.66-5.159 1.979-6.878 2.639-.08 1.36-.22 4.079-.3 5.439 14.956 3.039 30.313.18 45.369 2.459 10.238 1.46 20.595 1.06 30.893.96 0-1.34-.02-3.999-.02-5.339-5.919-.44-11.857-1.26-17.296-3.739 10.797-4.419 22.555-5.559 34.132-4.719-1.58 4.539-3.459 8.978-5.279 13.437 11.517.34 22.894 2.839 34.452 2.44 11.377-.38 22.575 2.179 33.932 2.019 12.957.24 26.014-.98 38.891 1.06 11.397 1.56 22.995 1.08 34.452.34-.1-2.979-.26-5.938-.42-8.898 9.338-.86 18.516-5.359 27.933-3.739.98 2.879 1.2 5.979 1.64 9.018-8.678.2-17.316-.76-25.934-1.54-.24 1.64-.72 4.919-.96 6.558.024.003 293.577 13.2 294.49 13.197 7.998-.34 15.456 3.419 20.875 9.138 3.525 13.793-2.414 61.057 4.319 91.578 2.14 8.658-1.54 17.016-2.559 25.494-.1 14.097 6.139 28.313 1.12 42.21-5.259.02-10.518-.18-15.756-.46-1.14-8.658-2.779-17.676-.3-26.254 4.459-13.357-3.899-26.974-.82-40.55 1.52-20.895 2.719-41.89.48-62.785-.84-7.798-10.378-8.478-15.556-12.437-3.699-5.759-6.458-12.157-11.037-17.316-3.979-.8-8.038-.7-12.037-.86-2.319 5.919-3.839 12.377-7.478 17.656-6.338 3.719-12.977 7.218-19.755 10.018-11.077 1.16-22.235 1.56-33.352 2.519-.9 10.138-.66 20.315-.18 30.473-1.38-.42-4.159-1.24-5.539-1.64-.34-10.318-1.06-20.615-2.879-30.773-13.557-.18-27.134.3-40.69-.52-.54-7.818-.68-15.636-1.02-23.434-13.477-4.559-27.833-4.499-41.75-2.299-.46 8.498-.44 17.016-1 25.514-12.697 4.939-26.694-.48-39.291 5.479 2.079 23.634 1.54 47.449 3.979 71.063-.56 6.138-6.398 10.078-9.178 15.296-5.999.74-13.037 1.18-16.676 6.758-3.479 6.439-.96 14.177-2.799 21.055-2.479 4.139-6.778 7.238-7.778 12.157-1.64 7.038-2.839 14.197-5.539 20.935-8.938-.04-17.876-.08-26.794-.22-2.739-6.538-8.178-10.977-13.077-15.776-3.039-6.338-6.039-12.737-9.098-19.075-2.539-8.598 1-17.556.02-26.334-.96-9.558-.76-19.175-.98-28.753.5-5.979-5.219-9.478-7.238-14.497-1.839-5.959-2.159-12.257-3.699-18.276-3.719-6.958-12.337-4.739-18.796-5.339-1.06-2.419-2.079-4.859-3.079-7.278-5.679-.54-11.297-1.4-16.856-2.539.02-8.698-.92-17.356-2.599-25.894-7.438-2.139-15.217-3.399-22.955-2.859-4.599 1.72-8.598 4.659-12.657 7.318-.04 8.338.02 16.656-.06 24.994-4.359.32-8.798.2-13.037 1.32-4.119 2.779-7.078 6.938-11.217 9.678-5.918.3-11.857-.48-17.756-.66-1.32 7.378-1.2 15.116-4.219 22.115-4.119 9.198-2.179 19.555-4.419 29.173-2.639 8.048-21.468 28.881-15.916 48.209-2.919.36-5.819.72-8.698 1.1-1.5 4.179-2.979 8.358-4.599 12.477-1.795-31.923 5.735-32.767-26.074-33.092-.2-7.638.3-15.376-1.02-22.955-.879-5.646-7.512-5.562-44.649-2.739-.38-4.639-.78-9.278-1.18-13.917-1.28-9.198 1.42-18.516-.96-27.613-25.588-5.883-19.903-9.087-33.892-15.876-.84-9.158 2.099-20.635-5.779-27.454-9.578-5.379-20.155 1.26-30.093 1.86-.58 9.358.08 18.776-1.08 28.113-3.079-19.336-3.619-38.951-3.459-58.486-16.896.08-33.512-3.399-50.368-3.959-2.279 8.558.3 18.516-4.539 26.194-8.058 2.139-16.876-.02-24.594 3.459-2.019 17.616.86 35.451-.74 53.147-9.838.48-19.695.38-29.533.4-.06 8.578-.06 17.176-.32 25.754-16.316 4.119-32.932 7.478-49.868 6.299-2.961 13.543.734 21.902-1.58 63.445-5.958.98-11.897 2.06-17.876 2.859-3.079-20.415-2.119-41.01-2.839-61.565-18.376-.82-36.751-.64-55.127-1.04-1.46-4.699-2.599-9.518-4.359-14.117-3.417-9.528-6.276-3.65-10.877-25.674-7.478-.02-14.956.08-22.435.14-.48 2.519-.94 5.039-1.38 7.598-2.519.64-4.999 1.32-7.478 2-1.58 5.419-2 11.677-6.598 15.576-5.479 5.119-9.638 11.377-11.937 18.536-7.758 1.08-15.536 1.939-23.354 2.419 0 17.236-.04 34.492.04 51.748-3.019 1.12-6.059 2.22-9.098 3.339-.56 4.799-1.04 9.638-1.52 14.456-3.779.1-7.538.18-11.277.26-.1-5.379-.18-10.737-.26-16.096h-17.38c-.48 5.399-1.1 10.797-2.059 16.136-3.559-.06-7.098-.08-10.637-.12-1.46-9.778-1.44-19.695-1.86-29.553-4.319-.38-8.718-.36-12.917-1.5-5.359-1.56-8.838-6.259-13.417-9.138-5.139 1.54-8.558 6.039-12.757 9.098-1.18-5.639-2.399-11.257-3.399-16.916-8.498-.02-16.996-.02-25.474.08-1.46 6.398.26 14.277-4.439 19.455-6.239.86-12.537.54-18.796.74-.4 7.618-.08 15.336-1.32 22.914-1.52 4.379-7.418 4.659-9.738 8.378-1.28 2.659-1.9 5.579-2.759 8.418-4.199-.04-8.398-.12-12.597-.22-.36-21.035-1.04-42.07-2.919-63.025-2.239-3.479-7.478-3.059-11.017-4.539-1.3-7.618-2.239-15.276-2.879-22.955-7.658.02-15.316.66-22.955 1.46-.5 7.138-.56 14.297-.58 21.455-6.958 1.52-14.557 5.139-21.375 1.24-7.389-22.259 2.035-59.807-7.078-66.924-7.258-.98-14.617-.44-21.895-.48-1.1-5.759-1.64-11.597-2.019-17.436-3.999-2.519-7.918-5.159-11.777-7.878-4.919 3.159-10.058 5.959-15.436 8.278-.22 3.479-.44 6.958-.64 10.458-7.638 4.079-15.156 8.718-23.934 9.818.26 12.417.32 24.854.18 37.271-8.998.62-17.976-.5-26.914-1.14-1.08-6.938-.14-14.517-3.639-20.855-4.459-5.959-12.897-4.259-19.355-4.699-6.458.54-15.196-1.58-19.435 4.779-3.479 6.279-2.419 13.777-3.239 20.695-5.139.38-10.277.68-15.436.94-4.299-17.796.48-36.411-3.999-54.167-1.36-5.179-1.959-10.497-2.44-15.816-4.779-.2-9.558-.44-14.316-.8-1.24-8.098-3.059-16.236-7.378-23.294-7.118.62-14.836-.94-21.475 2.239-3.959 6.198-3.999 13.937-5.139 21.015-4.739.66-9.498 1.28-14.237 1.9-.98 11.577-3.479 23.034-2.859 34.712.28 39.99 2.759 79.961 1.72 119.971-.66 9.138 2.599 19.255-2.659 27.513-1.76-11.497-1.22-23.174-2.159-34.752-8.138-.92-16.336-1.54-24.314-3.479-8.438-2.519-15.956-7.778-24.794-8.998-3.699-.76-7.778-.86-10.917-3.199-2.379-3.339-2.899-7.558-4.019-11.397-4.839.36-10.098-.02-14.197 3.039-5.919 4.559-13.657 3.359-20.615 4.159-5.719.16-10.398 4.439-16.136 4.319-46.159-.352-38.895 4.279-40.07-25.114-7.938-.08-15.896-.1-23.836-.1v231.965h2559.39v-222.231c-10.957-6.039-23.454-5.319-35.412-7.158-3.799 1.62-6.938 4.479-10.797 5.939-5.359-.4-10.238-4.199-15.696-2.859-4.939.96-10.038.48-14.896 1.62-6.458 2.219-12.337 5.819-18.855 7.798-4.979-23.094-4.019-46.989-4.459-70.483-7.258-.36-14.537-.78-21.635-2.339-.24-3.399-.44-6.758-.62-10.138-29.103.153-24.893-.906-32.492 11.337-9.298.38-18.096 3.539-27.094 5.519.96 16.336.56 32.732 1.659 49.068.58 8.458-1.06 16.816-1.719 25.234-5.339-2.619-11.237-3.279-17.056-2.26-2.839-2.499-5.519-5.419-9.158-6.698-4.379.56-7.718 3.899-11.417 5.999-2.052-26.731 1.625-57.477-13.117-74.042.4-9.418 1-18.835.76-28.253-8.318-1.1-18.516-1.86-24.014 5.938-6.898 6.099-2.479 15.616-1.699 23.274-4.439.92-9.778.3-13.057 3.959-5.119 4.579-10.837 10.957-18.416 9.338-7.038-3.559-14.616-7.338-19.375-13.757-3.119-9.958-8.738-19.335-7.758-30.153-9.418-2.059-18.256-6.019-27.594-8.258-6.618-1.44-11.937-5.859-17.916-8.758-.08-5.179-.14-10.358-.18-15.516-20.755-.54-41.57-.14-61.945 4.139.04-5.879.12-11.757.36-17.636 9.878.18 19.695 1.4 29.593 1.4 20.555-.66 40.87 3.419 61.446 2.06.34-1.54.98-4.619 1.32-6.139 2.579.08 5.199.2 7.838.3 1.28 2.539 2.479 5.179 4.219 7.518 14.417.82 28.893.26 43.33.3 4.959.46 8.398-3.539 12.397-5.739 3.839-2.439 8.598-1.56 12.917-1.8-1.38 3.179-2.719 6.359-3.979 9.578 17.596-.8 34.992 2.719 52.607 1.939 14.037-.54 27.873 2.919 41.95 2.04 14.037-.74 27.913 2.039 41.93 1.78 12.017.24 24.054.2 36.092.16 10.698-.24 21.195 2.099 31.892 2.359 16.616 1.84 33.372.8 50.048 1.78v-137.588c-.143.11-.284.214-.427.324zm-2535.001 97.936c-2.359 3.239-9.258-1.06-4.499-3.479 2.06-1.18 6.079.92 4.499 3.479zm440.265-197.614.25 13.421c-2.686.446-5.345 1.068-7.958 1.996-21.955 3.919-44.209 5.999-66.204 9.778-5.723 1.298-11.542.241-17.278.236l-.162-14.378c30.402-4.002 60.801-8.334 91.352-11.053zm-99.426 99.657c-37.786 2.35-44.123-1.58-70.65-2.22l-.291-53.903c1.376-.234 60.799-6.837 71.299-7.415-.001.001.53 51.678-.358 63.538zm-95.951-77.447c16.913-2.76 87.975-9.92 96.034-10.285l.169 14.928c-14.911 4.833-95.088 11.398-96.203 11.574zm19.017 22.438.285 52.722c-.991.001-1.982-.006-2.972.008-2.099-3.199-10.138-7.038-11.997-5.759-.469-12.746-4.332-44.289-4.332-44.289 6.442-.129 12.723-1.435 19.016-2.682zm-110.129 43.881c-1.958 2.01-3.564 4.398-5.232 6.65-1.36-2.219-3.399-4.339-3.239-7.118-.32-10.577-.22-21.175.36-31.732 2.455.091 4.903.401 7.357.553zm-10.903-57.544c2.048-.343 5.449-.79 9.772-1.298l.161 18.093c-3.385.281-6.761.707-10.139 1.089zm4.432 90.807c2.159 1.48 3.399 3.879 5.039 5.879-.92 1.18-2.799 3.539-3.739 4.719-2.119-2.24-4.279-4.459-6.398-6.678 1.659-1.361 3.358-2.68 5.098-3.92zm-107.795-55.767c4.876-.797 9.818-.649 14.734-.753l.734 19.089c-.257.02-.515.039-.772.059-1.08 2.739-2.18 5.479-3.319 8.198-3.359-.62-7.358-.14-9.658-3.219-1.859-7.637-2.038-15.556-1.719-23.374zm.28 50.928c4.319 2.359 6.039 7.038 7.878 11.297-2.859.18-5.699.34-8.558.5.161-3.939.341-7.878.68-11.797zm-8.618.14c.04 4.099-.06 8.198-.28 12.317-2.699-.5-5.399-1-8.078-1.5 1.16-4.758 3.36-9.197 8.358-10.817zm23.795 82.9c-12.097-.02-24.234.72-36.331.02.62-3.459-.04-9.658 4.899-9.778 11.317.28 23.814-2.499 34.052 3.639-.881 2.04-1.74 4.08-2.62 6.119zm4.65-164.17c13.597-1.455 27.444-1.297 41.038-2.49 11.991-1.845 24.144-1.104 36.211-1.757l-.207 18.005c-16.316 3.117-33.009 2.447-49.42 4.647-9.068 1.28-18.211 1.605-27.334 2.144zm77.97 94.507c-3.179.02-6.358 0-9.558-.04 1.959-4.279 4.419-8.378 8.278-11.217.52 3.739.94 7.498 1.28 11.257zm-76.622-46.426-.729-18.963c2.315-.246 4.615-.66 6.889-1.376 22.075-2.619 44.269-3.819 66.444-5.639.74 11.177 1.759 22.375 1.36 33.572-2.44 4.039-7.738 2.259-11.617 2.759-9.438.48-18.596-2.299-28.013-2.159-10.477-.02-20.955.14-31.433.02-.92-2.759-1.86-5.499-2.859-8.218-.015.002-.029.003-.042.004zm26.794 118.049c3.539-4.619 9.338-4.039 14.497-3.799-3.2 5.139-9.358 3.939-14.497 3.799zm7.378-71.063c-10.697-1.48-21.775.8-32.192-2.639.36-4.759.9-9.498 1.38-14.257 20.975.06 41.93.04 62.845.82-3.059 6.319-6.518 13.977-14.017 15.796-5.979.52-12.037 1.1-18.016.28zm60.166 65.964c-4.399-.18-8.778-.32-13.177-.18 2.159 4.419 7.618 3.699 11.637 5.019-11.657.54-23.334.4-34.992.4.02-1.08.06-3.259.08-4.339 5.499.24 10.997.76 16.336 2.16 4.759-6.818 13.077-6.178 20.415-5.939zm3.332-167.847c26.006-2.858 71.985-6.894 80.254-6.403v16.837c-9.029 1.597-63.709 7.869-80.091 8.041zm.378 27.492c17.601-3.784 76.817-8.649 79.877-8.841 0 0 1.748 34.368.013 48.06-23.234.84-46.489.38-69.743.38-5.19.675-7.229-4.136-9.397-8.138zm82.929 75.991c-3.659.86-7.358 1.5-11.057 2.079 2.14-4.559 4.479-9.058 7.718-12.957 1.2 3.599 2.299 7.218 3.339 10.878zm-47.708 67.883c2.419-1.78 3.799-1.3 4.179 1.44-2.42 1.759-3.8 1.28-4.179-1.44zm-6.959-68.143c-8.238-.3-17.716 1.1-24.634-4.319-.26-3.919.14-7.838.3-11.757 54.89-.124 36.044 2.469 66.644 6.419-2.959 3.799-5.659 8.498-10.737 9.738-10.438 2.038-21.055-.341-31.573-.081zm29.253 71.782c.24-2.699.48-5.419.74-8.118 11.037-3.759 22.695-.76 33.932.36.06 2.759.12 5.519.16 8.298-11.617.76-23.215-.88-34.832-.54zm77.682 1.54c-1.28 1.78-6.318 1.859-5.879-1.02 1.3-1.759 6.358-1.939 5.879 1.02zm23.074-69.404c-14.896-.38-30.053 1.16-44.769-1.7-5.559-3.899-12.157-8.178-12.477-15.696 24.074 2.439 48.348.02 72.423 2.559-1.74 7.099-6.659 15.817-15.177 14.837zm17.656.58c.1-2.799.2-5.579.32-8.358 2.499-.74 4.979-1.48 7.478-2.18.28 3.299.54 6.638.78 9.958-2.879.181-5.719.38-8.578.58zm8.958 69.644c2.399-1.8 3.779-1.32 4.139 1.44-2.4 1.779-3.779 1.299-4.139-1.44zm-1.46-7.758c1.859-1.88 6.358-1.52 6.838 1.5-.399 4.238-8.997 2.539-6.838-1.5zm6.748-163.301c18.462-4.69 37.728-5.091 56.457-8.698 11.739-.701 23.302-4.73 35.049-3.665.233 12.532.943 25.07.393 37.603-.516 11.758 1.314 23.812-.09 35.505-.36 2.999-2.399 5.459-3.719 8.098-12.057-.08-24.194.6-36.091-1.639-15.136-2.579-30.713 2.039-45.569-2.799-8.298-13.228-6.43-64.405-6.43-64.405zm92.268 95.897c-.16 2.819-.78 12.177-5.279 7.738-3.998-4.079 2.1-6.399 5.279-7.738zm-67.883 5.958c-7.598-.92-10.418-8.998-13.037-15.056 24.334-.58 48.648.92 72.983 1.34-1.86 5.919-5.039 11.277-9.038 15.996-16.916-1.68-34.052.2-50.908-2.28zm32.692 70.883c1.68-2.599 2.879-5.659 5.319-7.678 9.658-.58 19.415-.62 29.073.02 3.299 1.98 2.259 6.099 2.759 9.298-12.337-.08-25.214 2.339-37.151-1.64zm132.283-220.852.21 11.389c-1.726.212-54.803 11.145-90.26 13.92l-.251-13.491c33.549-5.712 89.3-11.69 90.301-11.818zm-87.834 153.409c-1.3-3.979-.24-7.978 1.1-11.757 3.439 3.159 6.039 7.098 8.218 11.197-3.119.2-6.218.379-9.318.56zm19.156-.74c-4.899-3.719-6.818-9.738-9.218-15.116 24.094.62 48.209 1.18 72.263 2.239-3.059 6.738-6.318 17.256-15.636 16.096-15.797-.94-31.733-1.14-47.409-3.219zm66.364 65.924c-2.44 1.78-3.839 1.3-4.219-1.4 2.399-1.779 3.799-1.319 4.219 1.4zm-32.192 5.739c-.98-.9-2.959-2.699-3.939-3.619 12.297-1.44 24.874.96 36.791 3.959-10.898.779-21.995 1.019-32.852-.34zm35.089-122.64c-.044 2.254-.341 4.523-.935 6.69-1.373 5.011-4.333 9.476-9.421 11.934-24.874-2.859-50.028-2.22-75.002-3.759-.56-.56-1.72-1.68-2.299-2.239-.939-9.885-.303-19.896-.89-29.795-.599-10.12-1.82-20.413-1.816-30.548 0-1.63-.998-19.083-.098-19.448 4.047-1.69 8.225-3.065 12.662-3.35 15.26-1.032 61.048-10.35 77.596-10.646.5 27.128.732 54.079.203 81.161zm7.393-102.953c42.95-7.955 68.66-11.607 75.065-12.404l.349 11.339c-1.884.363-63.701 11.847-75.196 12.905zm2.547 155.549c-.38-3.519.84-6.918 1.839-10.218 3.459 3.799 6.319 8.158 7.098 13.357-3.119-.599-6.858-.219-8.937-3.139zm70.923 3.639c-10.657 3.199-21.895-.6-32.792-.08-5.739-.18-11.837 1.28-17.296-1.04-4.379-4.799-7.418-10.637-11.197-15.896 22.255 0 44.569-.66 66.684 2.239-.5 5.16 1.039 12.798-5.399 14.777zm2.299-35.611c-9.678-.58-19.355 1.14-29.033.18-43.551-4.677-29.633.6-44.09-5.219-1.58-.875.341-19.027.223-21.317-.785-15.196-1.917-30.42-1.917-45.642-.195-10.543-.389-21.085-.584-31.628 11.444-3.149 69.447-12.606 75.281-13.402l3.512 113.979c-1.151.999-2.238 2.103-3.392 3.049zm7.271-136.856c5.901-.567 3.856-.323 7.295-.652l.149 9.863c-.242.034-6.877 1.387-7.116 1.435zm.578 18.762c2.332-.421 4.662-.863 6.99-1.31l1.217 80.6c-3.016 12.986-.155 26.691-1.22 39.943-1.163-1.297-2.281-2.639-3.435-3.946zm4.508 155.245c-.26-4.699-.06-9.518 3.419-13.077 1.22 3.499 2.419 7.038 3.619 10.577-2.359.841-4.698 1.68-7.038 2.5zm10.191-175.872c29.673-6.329 20.816-4.753 67.462-11.74l.263 8.514c-22.396 4.943-44.895 9.63-67.575 13.117zm67.978 5.014 4.132 133.879c-2.535 1.658-4.804 3.996-7.939 4.187-11.997 1.32-23.834-2.04-35.811-1.74-8.338-.24-17.336 1.24-24.934-3.059-1.882-7.056-3.143-119.524-3.158-120.528 22.526-4.529 44.952-9.701 67.71-12.739zm-66.192 172.218c-.52-4.119-.24-8.258.46-12.317 2.619 1.58 5.239 3.179 7.898 4.779.1 2.539.24 5.079.36 7.618-2.919-.02-5.818-.06-8.718-.08zm26.454.16c-9.678.52-14.917-9.958-16.056-18.276 19.175 2.459 38.471 2.359 57.766 2.279 1.06 5.399 2.139 10.797 2.879 16.276-26.832 7.871-14.2.317-44.589-.279zm928.658-434.157c-8.678 6.039-19.455 8.118-29.593 10.378 9.498-4.339 19.536-7.578 29.593-10.378zm-52.985 26.426 10.012 411.112c-3.275.296-6.54.723-9.814.977-.66-12.177 1.68-24.774-2.22-36.591-.208.014-8.44-371.77-8.44-371.77 3.51-1.172 6.993-2.43 10.462-3.728zm8.736 449.601c-4.119-1.76-7.858-4.439-12.177-5.699-3.659 1.42-7.158 3.259-10.857 4.579-.94-5.779 2.079-10.617 5.279-15.096 1.72 2.259 3.379 4.599 5.259 6.758 1.9-1.34 3.739-2.739 5.539-4.219 3.398 3.939 6.057 8.478 6.957 13.677zm-27.15-443.518 8.532 405.637c-12.606.681-25.039-2.101-37.609-1.21-5.207.268-10.071-1.37-14.507-3.855l-10.383-382.236c18.046-5.935 35.761-12.895 53.967-18.336zm-59.509 419.543c2.679-.02 5.379-.04 8.098-.04 0 4.299.02 8.598-.02 12.897-2.86-4.199-5.539-8.478-8.078-12.857zm2.099 16.616c-3.439 1.14-6.918.18-10.278-.7.28-3.599.68-7.198 1.2-10.757 4.359 2.62 6.798 7.099 9.078 11.457zm-4.489-415.31 10.315 379.738c-4.323 1.369-9.038 1.21-13.584.961 0 0-.24 13.91-12.471-375.104 4.945-1.689 15.401-5.491 15.74-5.595zm-78.756 25.283 6.349 341.485c-.413-.013-.405 6.672.114 10.031-5.399-.96-13.317 2.359-16.836-2.719-1.76-12.537-.76-25.274-2.199-37.851-.127.019-7.138-303.937-7.138-303.937 6.508-2.511 13.086-4.825 19.71-7.009zm-4.934 369.432h14.237c.02 5.719-.02 11.457-.4 17.176-6.559-3.899-9.678-11.137-13.837-17.176zm2.699 15.916c-3.019.06-6.039.12-9.038.18-1.2-3.819-1.18-7.718.62-11.357 3.18 3.439 5.899 7.239 8.418 11.177zm-77.989-358.303 7.701 318.317c-2.52 1.254-5.057 2.466-7.953 2.016-5.765-.736-11.549-2.176-17.275-.405l-8.5-311.921c26.426-8.97 6.906-2.594 26.027-8.007zm-82.292 26.235 7.747 288.263c-9.654 3.879-20.864 1.263-31.102 1.696-2.712-24.594-2.201-25.024-8.699-281.128 10.657-3.074 21.351-6.002 32.054-8.831zm7.918 324.63c-12.189 1.268-16.257 1.426-24.594-18.276 7.918 1.3 15.916 2.16 23.974 1.8.2 5.479.5 10.978.62 16.476zm-514.821-212.747c3.441-.54 6.877-1.102 10.309-1.692l.247 7.799c-3.439.634-6.875 1.28-10.307 1.939zm.513 16.591c3.41-.891 6.852-1.631 10.302-2.33 0 0 3.277 126.895 1.347 142.779-2.721-.874-5.107-2.363-7.435-3.943zm14.347 178.381c-2.859-.94-7.678-.94-8.178-4.699 1.64-4.039 4.459-7.418 7.098-10.837 2.16 4.998 3.54 10.337 1.08 15.536zm3.406-198.099s48.143-9.769 62.009-12.445l.217 6.863c-7.738 1.815-11.171 4.11-61.98 13.358zm4.292 197.779c.06-4.959.24-9.938.68-14.876 4.079 3.979 7.298 8.858 8.398 14.556-3.019.12-6.058.24-9.078.32zm60.826 2.699c-13.357.16-26.534-2.279-39.811-3.419-6.059-4.379-8.678-11.597-12.617-17.656 18.036-.64 35.871 3.139 53.947 2.02.081 6.378.101 12.816-1.519 19.055zm-10.338-37.191c-16.576-1.88-33.232-2.659-49.828-4.439-1.099-15.328-4.453-143.093-4.453-143.093 37.111-7.948 47.362-11.225 62-12.716l4.943 156.139c-3.822 2.585-7.84 5.076-12.662 4.109zm15.184-177.228c5.433-1.001 10.878-1.938 16.338-2.794l.129 5.971c-5.427 1.089-10.85 2.203-16.259 3.387zm.493 15.584c5.26-1.877 10.693-3.075 16.15-4.191l2.792 129.274c-2.643 13.524 5.236 32.8-1.547 36.581-4.467.946-8.634-.514-12.365-2.781zm5.858 179.76c1.7.04 5.099.14 6.798.18-1.82 4.439-3.759 8.838-6.358 12.877-.38-4.36-.44-8.718-.44-13.057zm9.118 20.915c-.68-1.34-2.059-4.039-2.739-5.379 2.259-3.579 4.639-7.078 7.258-10.397.96 3.359 2.719 6.678 2.539 10.277-2.199 2.039-4.638 3.759-7.058 5.499zm8.835-220.589c18.488-5.303 37.516-8.245 56.367-11.981l.13 5.228c-17.418 4.214-13.69 4.195-56.369 12.669zm8.801 221.448c-3.759-4.599-6.019-9.958-2.559-15.536 4.459 4.539 6.778 10.437 9.438 16.076-2.3-.18-4.6-.36-6.879-.54zm39.57 1.06c-6.258-1.2-12.557-1.939-18.895-2.16-7.838-3.799-12.697-11.377-16.776-18.755 9.558 1.16 19.215-.52 28.733 1.08 6.159 1 12.417 1.04 18.656 1.08.071 18.261 2.053 18.965-11.718 18.755zm5.879-38.331c-10.277.12-20.795.32-30.753-2.519-5.559-.46-11.837 3.239-16.896-.2-3.6-10.272-4.67-92.021-6.298-167.419 5.824-1.318 37.668-9.795 56.4-12.469l4.474 179.875c-2.241 1.15-4.505 2.694-6.927 2.732zm10.077-197.807c17.389-3.739 12.348-2.083 21.366-3.539l.068 3.532c-14.891 3.517-6.321 2.023-21.308 5.09zm.333 13.414c6.927-2.546 14.053-4.41 21.242-6.074.42 21.843 3.903 176.574 2.02 191.947-6.493.404-13.05-.566-18.733-3.814zm5.906 220.924c-.44-5.819-.48-11.637-.3-17.456 4.119.58 8.218 1.34 12.317 2.12-2.959 5.839-5.558 12.537-12.017 15.336zm17.696 3.16c-2.799-.1-5.599-.18-8.378-.26 2.459-5.479 5.539-10.657 9.658-15.056.94 2.979 2.16 5.899 2.739 8.998-1.2 2.179-2.659 4.218-4.019 6.318zm5.39-243.13c15.137-5.461 30.992-8.265 46.683-11.717l.128 4.361c-15.297 4.864-31.084 7.75-46.737 11.172zm47.015-.384 6.033 205.701c-1.453 1.036-2.931 2.103-4.591 2.202-14.576-.52-29.333.3-43.63-3.159-.888-15.34-4.612-193.173-4.612-193.173 32.427-7.135 13.363-4.117 46.8-11.571zm-41.528 245.313c-1.28-5.319-2.519-10.897.44-15.956 3.919 4.739 6.658 10.258 8.918 15.936-3.139 0-6.259.02-9.358.02zm47.149 1.18c-9.438-.72-19.675.14-28.073-4.999-6.199-3.299-8.578-10.297-11.557-16.176 7.218-.04 14.417-.34 21.635-.76 5.959 1.1 11.897 2.279 17.976 2.639 2.398 6.239 2.678 13.078.019 19.296zm1.994-259.652c11.092-2.68 19.278-5.625 27.722-5.168l.047 2.25c-8.729 3.809-18.387 4.684-27.653 6.845zm.331 11.275c4.739-1.191 9.438-2.537 14.031-4.303 4.552-.989 9.057-2.147 13.543-3.378 3.451 165.171 4.409 204.808 4.133 219.066-8.616-.601-17.866-.04-25.633-4.27zm11.712 247.857c-5.419-5.019-4.059-12.557-4.139-19.175 6.158-.18 12.317-.02 18.456.42-2.9 7.498-6.579 15.216-14.317 18.755zm21.854 1.44c-2.919-.06-5.819-.14-8.718-.22.62-6.258 4.279-11.337 8.018-16.136 1.96 5.318 3.22 10.957.7 16.356zm1.778-267.989c3.389-2.1 43.256-11.221 44.469-11.478l.31.535.012.487c-7.857 4.91-17.437 5.875-26.133 8.689-6.101 1.374-12.303 4.548-18.621 3.549zm7.7 269.888c-2.339-5.399-3.459-11.117-1.04-16.756 4.959 4.399 7.598 10.497 9.298 16.756-2.779-.02-5.519 0-8.258 0zm42.39-2.599c-4.819 5.119-13.197 2.539-19.495 2.299-8.178-3.499-12.757-12.137-16.536-19.795 11.397-2.399 22.755-.74 34.152.44 1.399 5.539 2.839 11.297 1.879 17.056zm-43.77-37.811c-.962-26.828-6.138-220.71-6.138-220.71 41.779-12.104 32.008-7.918 44.811-11.066l5.79 231.789c-14.054 5.311-29.915 1.885-44.463-.013zm46.403-242.663-.141-.244c9.191-3.128 18.731-5.316 28.38-6.334-8.992 3.59-18.465 6.987-28.214 7.602zm.216 8.641c9.704-3.033 19.217-6.815 29.23-8.755 0 0 5.415 209.264 5.331 209.265.54 12.637 1.02 25.294.74 37.951-9.773-.185-20.35.971-29.42-2.986zm16.007 273.413c-3.279 3.039-7.118-.44-10.538-1.36-.16-5.939-.1-11.877.12-17.816 7.258.82 14.497 1.9 21.815 2.359-2.22 6.419-4.599 13.837-11.397 16.817zm17.795 3.959c-.28-1.7-.86-5.119-1.14-6.818-1.959.58-3.899 1.18-5.839 1.76 2.579-3.919 5.419-7.638 8.618-11.057 2.52 5.437.861 11.036-1.639 16.115zm11.118-.6c-1.52-4.939-1.799-10.098-1.6-15.216 4.699 3.639 7.718 8.758 8.838 14.576-1.82.16-5.439.48-7.238.64zm35.291-1.36c-3.519 1.48-7.218 2.439-10.857 3.599-8.038-4.679-13.957-12.017-16.816-20.895 9.458 2.22 19.515 5.079 28.873.74-.38 5.459.96 11.397-1.2 16.556zm-4.839-35.011c-10.417.24-21.295 1.12-31.133-2.999-1.537-8.468-1.27-36.968-1.425-36.967l-5.638-211.292c12.748-4.462 25.843-7.855 39.017-10.751l5.66 260.065c-2.022 1.084-4.119 1.981-6.481 1.944zm8.769-264.402c11.033-3.747 22.156-7.25 33.335-10.563l6.07 239.225c-.082.003-.164.005-.246.009 0 0 .866 24.455 1.189 37.172-7.522.75-28.61 2.711-34.605-1.969zm25.363 298.214c-6.099 4.899-14.996 6.358-20.575-.18.48-5.339 1.26-10.617 2.02-15.916 8.998.76 17.916 2.479 26.974 2.599-2.96 4.399-7.559 7.978-8.419 13.497zm8.678 2.619c.9-4.419 3.379-8.098 6.478-11.257 1.2 3.779 2.319 7.578 3.339 11.417-3.278-.04-6.558-.08-9.817-.16zm14.217-3.679c1.979-1.48 5.099.28 6.139 2.239-.601 3.659-7.479.98-6.139-2.239zm3.599 69.863c10.657-4.859 23.374-4.239 33.832.86-10.738 3.919-23.375 3.839-33.832-.86zm29.419-390.872c12.845-6.242 26.761-9.483 40.389-13.573 8.29 304.191 8.623 300.269 5.873 308.388-33.297-1.694-34.601 1.353-38.407-2.538zm31.606 328.327c-7.938.26-15.936.1-23.594-2.179-.12-5.399-.1-10.777.08-16.156 10.078 1.3 20.135 2.759 30.333 2.519.379 6.218-3.08 11.237-6.819 15.816zm7.698.04c2.499-3.739 5.099-7.398 7.958-10.877 1.12 3.619 2.219 7.258 3.199 10.937-3.738.02-7.457 0-11.157-.06zm15.957-.1c1.56-1.82 3.119-3.639 4.719-5.439 1.68 2.419 3.299 4.879 4.799 7.458-3.2-.639-6.359-1.339-9.518-2.019zm24.754 4.719c-8.618-2.879-12.557-11.217-16.396-18.695 6.139-.02 12.277 0 18.436.02.219 6.278.259 12.716-2.04 18.675zm2.267-359.757c15.432-6.268 28.38-10.931 44.635-14.888 6.016 270.572 7.528 327.093 6.785 340.313-11.297-2.579-22.915-2.659-34.312-.74-3.701 1.089-6.494-.989-9.325-2.995zm53.539 360.477c-3.879-1-7.278-2.999-10.577-5.139-10.378 5.859-22.455 3.319-33.792 3.739-1.939-5.939-.56-12.097.28-18.076 11.957 2.159 24.114 2.259 36.231 2.08-.7 3.599-1.44 7.178-2 10.817 3.359-1.64 6.638-3.519 9.898-5.399 0 3.98 0 7.979-.04 11.978zm.76 65.964c2.079-3.739 6.638-3.659 10.318-4.599 7.498-1.56 16.856-1.88 21.995 4.879-10.598 2.939-21.595.12-32.313-.28zm32.442-103.905-6.497-349.477c15.67-4.946 31.511-9.414 47.143-14.486l10.519 334.551c-.098.06-.221.137-.306.189-.06 11.997.06 24.014-.12 36.011-15.456-3.459-31.552-.24-47.069-3.119-1.755-.723-2.833-2.098-3.67-3.669zm42.38 35.581c-4.979 3.399-10.497 8.538-17.016 6.478-7.458-1.919-15.136-2.059-22.735-2.859.14-5.339.32-10.697.62-16.036 13.237 2.019 26.634.96 39.951 1.42-.18 3.659-.06 7.378-.82 10.997zm9.918-6.278c.34 4.399.52 8.818.66 13.237-2.999.24-5.999.46-8.978.66.54-5.739 4.039-10.298 8.318-13.897zm25.974 81.12c-10.098-2-20.735-.96-30.393-4.979 10.357-1.7 20.675-3.619 31.033-5.319-.2 3.42-.4 6.859-.64 10.298zm38.091-62.025c-10.537-.32-20.975-2.719-31.432-3.999-.72-5.439-1.54-10.857-2.479-16.236 13.317-2.619 26.913.54 40.37.42 2.12.04 7.478.42 5.938 3.839-2.52 6.119-6.119 13.217-12.397 15.976zm11.857 61.206c10.338-1.56 20.695-4.199 31.233-3.059-7.799 7.817-21.556 7.358-31.233 3.059zm24.323-511.756c15.189-5.944 30.239-12.301 46.06-16.298-.206 81.542.982 163.328 2.854 244.812.002.07.003.139.005.209 0 0 1.82 132.046 1.82 132.048.48 19.375 2.5 38.791.7 58.166-9.818-.08-19.415-2.799-29.253-2.22-4.153.359-8.172-.344-12.074-1.523zm52.178 451.87c-1.96.88-3.879 1.78-5.779 2.699-9.638-6.678-21.015.34-31.593-2.14-5.159-4.959-1.68-13.477-2.619-19.915 12.837-.04 25.474 3.119 38.351 2.199 1.581 5.58 2 11.378 1.64 17.157zm16.121-567.44h-11.378l-.766-12.729 13.106.215zm132.384 646.281c-1.06 2.879-2.14 5.739-3.199 8.598-1.92-2.839-3.759-5.739-5.579-8.638 2.919 0 5.839.02 8.778.04zm-4.239-351.956c.08 26.595 2.884 33.83 1.74 115.932-1 .02-2.999.06-3.979.06-.26-17.456.82-34.992-1.54-52.348-1.38-24.534.36-49.168-.86-73.702-2.919-17.856-1.18-35.991-1.58-53.967.36-11.397-2.28-22.595-2.08-33.992.18-15.636-.28-31.273.34-46.909 12.366 10.374 6.03-17.055 7.959 144.926zm-8.838-247.521c1.18-1.959 6.139-1.74 5.619 1.14-1.26 1.94-6.139 1.72-5.619-1.14zm6.259 70.503c1.14 9.818 2.099 19.675 2.359 29.573-2.619-.86-5.219-1.72-7.798-2.619-.08-7.838-1.839-15.536-2.219-23.355 2.179-1.859 4.978-2.619 7.658-3.599zm-7.039 325.703c2.979 2.219 1.839 9.038.72 12.537-2.999-2.26-1.879-9.058-.72-12.537zm-6.578-28.754c-4.639.88-9.278 1.72-13.937 2.379.72-20.835-2.859-41.51-2.12-62.345-.24-21.335.74-42.73-1.12-64.025-.32-4.359-.3-8.738-.2-13.077 4.999-1.4 10.038-2.659 15.196-3.439.48 26.154-.84 52.388 1.92 78.441.121 20.696.681 41.391.261 62.066zm-4.319-143.985c-3.559-.04-7.098-.1-10.617-.2.84-6.838 7.918-5.859 13.057-6.039-.82 2.08-1.64 4.159-2.44 6.239zm.58-11.997c-4.719 1.02-9.438 1.9-14.197 2.499 0-14.157-.06-28.333-1.72-42.41-.26-27.633-.48-55.287-1.14-82.9 5.099 1.94 9.958 4.419 14.736 7.078-.12 13.897-.34 27.833 1.7 41.63.741 24.675-.059 49.409.621 74.103zm-7.458-205.291c2.959 2.999-6.259 5.519-8.718 4.299.04-3.699 5.858-3.839 8.718-4.299zm5.078 70.443c.02 4.339.04 8.698.06 13.057-5.299-2.599-10.637-5.199-15.196-8.978 4.979-1.58 10.018-2.959 15.136-4.079zm-15.936 324.842h3.999c-.02 3.319-.02 6.658 0 9.998h-3.999c-.02-3.339-.02-6.678 0-9.998zm-6.278-46.409c-.6 5.739 1.48 11.997-.78 17.376-3.659 1.58-7.518 2.519-11.297 3.599-2.359-22.135-1.36-44.429-1.9-66.624-1.66-12.177 1.16-24.474-1.06-36.611-1.08-10.877-1.1-21.915-.3-32.812 1.32-4.919 7.458-4.339 11.457-4.899 2.16 21.395.9 42.95 2.12 64.405-.48 18.575 3.259 36.971 1.76 55.566zm-12.937-128.969c1.88-2.859 7.318-.04 4.899 3.019-1.94 2.76-7.379.021-4.899-3.019zm-6.779-136.527c4.259-1.48 8.598-2.799 12.917-4.219 2.719 23.154-.18 46.609 1.56 69.843 2.699 20.715 1.06 41.65 1.56 62.445-3.879 1.08-7.798 2.02-11.717 2.839-4.859-27.913-.5-56.347-3.259-84.44-1.9-15.416-.781-30.972-1.061-46.468zm.54 319.184c3.039.04 3.039 7.538-.02 7.578-1.699-2.02-1.699-5.579.02-7.578zm-8.858-107.335c.96 20.695-.3 41.45.6 62.165-.1 4.819 2.319 9.838.36 14.497-3.839 2.18-8.278 2.859-12.477 3.979-3.97-82.569-1.147-67.828-2.539-97.937-1.08-13.437-1.939-26.894-1.6-40.37 4.579-1.02 9.178-2.02 13.857-2.719.64 20.135-1.06 40.37 1.799 60.385zm-11.897-63.925c.2-1.42.6-4.259.8-5.679 1.18.02 3.579.06 4.759.08.22 1.4.66 4.179.88 5.579-1.62 0-4.819.02-6.439.02zm-7.758-139.806c4.659-1.42 9.338-2.799 13.997-4.239.34 16.136-.38 32.332 1.68 48.368.98 27.713-.72 55.507 1.68 83.18-4.379 1.46-8.858 2.599-13.337 3.619-.06-11.637.24-23.274-1.1-34.852-2.739-25.974 1.26-52.288-2.679-78.181-.501-5.938-.281-11.917-.241-17.895zm.4 316.944c2.859-.54 3.079 4.379 1.16 5.619-2.9.52-3.12-4.399-1.16-5.619zm-4.399 59.346c11.157-10.258 23.634-19.515 38.131-24.434 8.978-2.819 17.996-7.258 27.673-5.999 11.757 1.68 23.234 5.279 33.812 10.737.38 12.837.82 25.734.02 38.571-3.464 6.192-29.149.466-41.65.14-1.08-12.777.94-25.794-1.859-38.371-2.779.84-5.879 1.16-7.958 3.359-1.02 10.338 1.42 20.595 1.58 30.913-16.036 2.699-33.572 4.479-49.788.46-.021-5.138-.001-10.257.039-15.376zm49.548 48.448c-2.919.4-2.939-4.579-1.14-5.899 2.86-.419 2.88 4.56 1.14 5.899zm-52.387-136.187c-4.319-8.238-2.759-17.836-3.179-26.754.42-25.354-2.619-50.628-2.04-75.982.58-15.396-2.279-30.633-2.14-46.029-.18-9.558.18-19.175-1.04-28.673-1.94-16.376.28-32.912-1.4-49.308-2.899-18.596-.36-37.471-1.88-56.167 1.979-.66 3.999-1.32 6.039-1.94.93 13.143 4.397 223.766 4.759 232.065 2.62 17.436 2.2 35.252.881 52.788zm8.958 232.884c-2.38-5.639-2.38-11.777-2.359-17.756 3.619.06 7.278.12 10.937.26-1.6 6.359-4.419 12.378-8.578 17.496zm28.473-94.997c-8.838 6.059-19.935 2.619-29.513.6-5.039-2.599-5.499-7.878-5.399-12.937 6.259-2.519 12.917-4.199 19.096-.46.04-1.02.12-3.059.16-4.079 7.218.08 14.337 1.34 21.415 2.619-.82 4.899-.141 12.117-5.759 14.257zm24.194 73.543c-1.84 5.739-4.859 10.977-7.838 16.176-2.739-5.359-5.499-10.697-7.698-16.296 5.158-.12 10.357-.081 15.536.12zm-2.339 112.053c-1.86-2.879-3.639-5.799-5.239-8.798 3.099.62 6.318 1.22 9.138 2.879-.6 2.4-2.36 4.119-3.899 5.919zm1.019-30.273c-4.019-.3-7.998-.66-11.957-1 2.14-6.478 4.899-12.717 8.058-18.755 3.319 4.719 6.239 9.758 8.158 15.256-1.439 1.48-2.879 2.979-4.259 4.499zm26.194-150.084c-9.518-1.18-13.217-10.937-17.836-17.916 7.398-.02 14.797 0 22.215-.04 1.38 3.759 3.259 7.458 3.699 11.517-2.279 2.6-4.899 5.019-8.078 6.439zm18.036 144.025c-3.499-.04-6.978-.08-10.418-.12 1.76-6.419 4.439-12.517 7.258-18.536 1.8 2.299 4.679 4.059 5.459 7.018-.14 3.98-1.479 7.779-2.299 11.638zm1.672-772.375-2.201-10.516 11.339-.945c.533 2.404 1.076 4.806 1.607 7.201-3.632 1.354-7.208 2.781-10.745 4.26zm315.055 246.646 3.007 110.515c-23.315-9.704-46.616-19.628-69.661-29.715l-2.302-114.982c23.09 11.651 46.071 23.04 68.956 34.182zm-69.128 356.789c-1.005-.066-2-.052-2.988.02l-6.291-276.809c1.255.554 2.512 1.107 3.769 1.66zm-6.497-394.353-1.399.028 2.299 114.792c-1.261-.556-2.522-1.111-3.781-1.667l-.019-.823-1.749.04c-22.261-9.851-44.233-19.845-65.695-29.932l-3.422-120.459c24.718 12.964 49.304 25.638 73.766 38.021zm-4.459 395.724c-2.612.559-5.227 1.065-7.898 1.04937-16.382-1.60337-32.877-1.56037-49.17-3.96737l-8.69-305.894c19.429 9.114 39.268 18.151 59.356 27.074zm-71.41-226.143c1.365 48.036 2.729 96.072 4.094 144.109.405 14.24.469 28.483.414 42.727-.033 8.54-.109 17.08-.181 25.619-.129 15.312-25.166 11.333-35.471 9.858-11.877-.58-23.834-.58-35.492-3.259-1.354-.311-2.926-48.085-3.183-53.148-.988-19.497-.099-39.05-.628-58.559-.625-25.093-1.251-50.185-1.876-75.278-1.108-44.464-2.216-88.928-3.324-133.392-.179-7.192-.354-14.385-.538-21.577 23.569 12.204 48.272 24.369 73.728 36.411.818 28.83 1.637 57.66 2.457 86.489zm-59.698 237.61c5.599-.74 10.877 1.54 16.336 2.419 13.157 3.119 26.774 2.079 40.151 1.56-2.58 4.459-4.199 9.358-5.879 14.217-44.297-1.044-38.116 5.192-50.608-18.196zm1.299 16.176c-2.799-.12-5.579-.26-8.338-.4.02-2.879.08-5.739.2-8.618 3.699 2 6.099 5.419 8.138 9.018zm-18.575-1.88c-3.439-.14-2.539-5.499.44-5.639 3.219.101 2.519 5.619-.44 5.639zm71.597-463.434-.633.018 3.424 120.539c-25.468-12.071-50.166-24.264-73.715-36.492l-3.082-123.665c24.812 13.494 49.475 26.69 74.006 39.6zm-125.629 34.721c.177-8.636-.546-17.389-.818-26.024-.029-.91-.059-1.821-.09-2.731-.869-25.013-2.81-50.037-3.206-75.024.874.399 1.744.81 2.616 1.213.006-.307.056-.611.084-.917 15.052 8.37 30.042 16.621 44.986 24.776l-.055.001s3.086 123.818 3.086 123.818c-11.979-6.297-23.888-12.727-35.705-19.325-3.708-2.07-8.494-3.624-10.219-7.699-2.378-5.621-.798-12.233-.679-18.088zm13.523 354.117c-.631-13.308-1.262-26.617-1.892-39.926-1.212-25.577-1.591-50.95-2.272-76.541-.984-36.609-3.302-73.362-4.976-110.094-1.262-27.691-2.159-55.37-1.841-82.967.055-3.422 3.234-16.622-.337-18.619.14.078.283.15.424.227-.058-.179-.089-.366-.14-.547 14.165 8.008 28.945 16.028 44.228 24.037.009.344 8.658 346.869 8.63505 347.494-.03405.943-20.13505-5.948-22.56205-7.974-4.357-3.639-5.248-9.891-11.345-10.128-1.943 3.941-3.885 7.882-5.828 11.823 1.079-3.303-1.014-14.015-1.147-16.821-.316-6.656-.631-13.31-.947-19.964zm36.63 60.44c-2.259 4.799-3.959 10.418-8.678 13.437-4.659 2.879-10.297.58-15.276.18-.32-3.639-.28-7.258-.28-10.897 7.937-2.2 15.916-4.98 24.234-2.72zm93.577 103.575c-2.119 3.819-5.399 6.998-6.758 11.237-1.08 5.479.18 11.137-.8 16.636-1.1 2.579-4.199 3.319-6.158 5.059.56 8.838 1.12 17.736.3 26.614-3.899.02-7.758.06-11.617.1-1.36-9.178-3.279-18.316-2.799-27.653-8.938-2.679-18.296-1.02-27.394-1.78-4.319-5.139-1.6-13.137-5.879-18.555-5.859-2.219-12.077.08-18.096-.42-3.839-.06-8.638-1.4-11.017 2.619-2.779 5.039-3.219 11.337-2.359 17.016-2.939 1.56-5.938 3.019-8.938 4.399.26 7.658-.26 15.436-4.279 22.195-.98-2.999-1.82-6.019-2.599-9.038-4.019-1.06-8.158-1.78-12.057-3.179-2.199-5.079-.92-11.017-2-16.416-1.6-8.738-1.26-17.656-1.28-26.494.12-7.298-1.76-14.556-.54-21.815 6.498-.08 12.997-.14 19.515-.56-1.66-2.559-3.419-5.039-5.199-7.458 8.518.2 16.836-1.939 25.334-2.099-1.68 3.759-5.479 5.279-8.958 6.818.02 1.12.02 3.359.04 4.479 12.917 1.32 25.934 0 38.851 1.44 9.998.84 19.995-.28 29.953-1.3-1.7-1.899-3.459-3.699-5.199-5.459 6.058-.02 12.137.04 18.236.06l.02 2.119c-4.059-.04-8.078-.06-12.077-.04.04 1.52.08 4.539.12 6.058 7.938.68 15.916 1.32 23.874 2.02 0 4.459.28 8.938-.24 13.397zm.02-83.42c.18-3.159.44-6.299.78-9.438 2.899 2.399 4.759 5.679 6.478 8.998-1.819.1-5.438.32-7.258.44zm17.056-.84c-3.699-4.579-6.678-9.678-9.398-14.856 17.436.34 34.852 1.12 52.307 1.94.24 5.279-.44 10.518-1.8 15.596-13.715-.52-27.872 1.879-41.109-2.68zm43.51 125.47c-.36-6.558-.34-13.177-1.7-19.635-2.539-10.997 0-22.235-.5-33.352 2.579.74 5.179 1.5 7.818 2.259.22 15.836-.84 31.772 1.979 47.449-2.178 1.839-4.998 2.439-7.597 3.279zm11.117-123.93c-2.839-.32-3.339-1.66-1.5-3.979 2.8.32 3.3 1.639 1.5 3.979zm5.399-67.084c-.037.002-.085.004-.124.006l-4.773-238.343c18.338 8.016 36.832 15.927 55.364 23.706l-2.336.08 8.693 252.111c-15.441.755-42.854.162-55.164-2.148-.201-11.818-.1-23.675-1.66-35.412zm7.018 69.183c-2.499 1.48-4.619-2.899-2.679-4.499 2.499-1.419 4.739 2.82 2.679 4.499zm31.613-14.156c5.419.94 10.917 1.24 16.436 1.48.8 4.339 1.82 8.698 1.9 13.157-3.459 4.159-9.238 1.4-13.817 1.8-8.258-.78-17.576 3.019-24.714-2.639-5.439-2.959-6.719-9.378-8.938-14.616 9.697 1.337 19.455-.862 29.133.818zm20.914 107.154c-14.017-6.498-29.653-3.199-44.509-3.979-.04-6.139-.04-12.277 0-18.416 13.277.52 26.594.44 39.891.48-.1-2.499-.14-4.979-.14-7.458 4.838 8.938 9.057 19.275 4.758 29.373zm10.318-157.442c-1.04 11.057-.52 22.175-.5 33.252-1.512-.247-3.024-.375-4.537-.46l-8.612-249.754c2.86 1.196 5.72 2.388 8.58 3.578l5.806 213.384c-.243.002-.493-.004-.737 0zm-.088-324.345c23.054 11.176 46.011 22.099 68.88 32.769l2.839 105.031c-22.738-9.031-45.724-18.334-68.727-27.858zm52.68 134.505-.343.009 5.774 223.261c-.51.683-1.04 1.35-1.537 2.042-15.596.04-31.192.46-46.769-.44-.073-1.103-6.667-244.061-6.695-245.061 16.564 6.85 33.117 13.588 49.57 20.189zm-40.095 257.963c-3.079.5-4.899-3.759-2.999-5.919 3.399-2.979 7.278 4.82 2.999 5.919zm13.637.66c-3.159-4.919-5.559-10.318-9.018-15.036 7.778.38 15.636-.92 23.394.52 5.878 1.16 11.877 1.34 17.896 1.42.72 5.379.92 10.897-1.04 16.076-10.257-2.5-20.915-1.24-31.232-2.98zm32.812 64.885c-4.439-.14-8.858-.24-13.237-.62 4.859-2.14 10.038-3.399 15.296-4.079-.519 1.16-1.559 3.519-2.059 4.699zm1.383-320.412c3.814 1.523 7.619 3.036 11.419 4.544l5.032 186.17c-.165.011-.333.017-.498.028 1 11.137.98 22.315.3 33.472-3.259-.24-6.478-.48-9.698-.68-1.224-4.223-.419 13.73-6.555-223.534zm14.833 258.386c-3.379-.64-1.859-5.279.7-5.939 5.239-1.739 3.739 7.019-.7 5.939zm1.732-359.453c23.126 10.74 46.165 21.225 69.126 31.459l-1.293.032 2.475 99.182c-22.053-8.413-44.627-17.165-67.485-26.203zm52.095 360.973c-8.238 2.719-16.996.52-24.934-2.139-6.198-1.94-8.118-8.438-10.997-13.517 12.357-.64 24.614.5 36.831 2.379-.3 4.419-.6 8.838-.9 13.277zm-12.657-33.352c-1.08-3.739-2.139-7.458-3.659-10.997-5.279 3.559-7.978 12.097-15.456 10.917-2.739-.08-6.019.22-7.398-2.659-3.599-10.817-4.19-33.592-5.051-33.548l-4.933-182.52c15.641 6.178 31.146 12.223 46.44 18.116l-2.541.106 8.215 196.192c-7.302 5.904-7.382 3.443-15.617 4.393zm23.175 32.632c-.26-4.319-.36-8.638-.46-12.937 2.74-.02 5.499-.02 8.298 0-2.44 4.419-5.019 8.758-7.838 12.937zm1.799-31.392c-.28-3.579-.62-7.178-.96-10.737-.203.086-.394.194-.595.283l-7.928-189.342c5.189 1.994 10.352 3.97 15.487 5.927 4.968 199.039 4.794 181.321 4.013 191.79-3.378.639-6.718 1.319-10.017 2.079zm12.557 31.412c-2.479 2-4.799-2.439-2.559-4.039 2.399-1.899 4.719 2.44 2.559 4.039zm11.138 2.3c-2.659 1.859-5.659-2.679-3.399-4.679 2.599-1.88 5.538 2.639 3.399 4.679zm34.231.68c-7.278.54-14.556.48-21.795.06-1.82-4.239-3.759-8.438-6.198-12.337 9.818-2.539 20.215-2.339 29.993.32-.76 3.958-1.46 7.937-2 11.957zm-38.05-33.552c.02-11.657-1.653-34.872-1.882-34.833l-3.914-156.804c13.864 5.264 27.501 10.387 40.857 15.358l5.353 177.144c-13.477.763-27.115 2.004-40.414-.865zm-5.903-195.952-2.477-99.265c22.88 10.155 45.685 20.061 68.425 29.724l2.259 95.032c-21.907-8.056-44.739-16.575-68.207-25.491zm49.057 22.68c6.491 2.407 12.91 4.776 19.251 7.106 3.841 161.602 3.958 155.288 3.239 169.905-5.813-.333-11.501-1.44-17.213-2.374zm4.974 208.003c.4-4.399.96-8.778 1.5-13.157 3.339.06 6.718.12 10.097.22-1.679 5.799-4.099 13.517-11.597 12.937zm16.636 1.32c-3.619-.88-1.12-6.238 1.899-5.739 3.54.86 1.38 6.659-1.899 5.739zm3.36-298.121c22.91 9.683 45.756 19.119 68.55 28.314l-.667.014 1.86 90.59c-21.075-7.486-43.705-15.632-67.495-24.347zm8.717 267.148c-1.711-11.639-3.16-23.489-3.179-35.272-.009 0-.018-.001-.027-.001l-3.161-133.012c12.209 4.47 24.113 8.79 35.65 12.945l-1.607.056 5.383 154.132c-10.818 2.661-22.066 1.889-33.059 1.152zm31.133 32.593c-4.499-.04-8.998.24-13.417-.42-4.359-3.559-9.818-7.258-10.857-13.177 3.439-2.939 8.158-.46 12.237-.78 4.659.84 10.537-1.08 14.137 2.859-.221 3.899-1.32 7.698-2.1 11.518zm18.455 1.199c-1.879-.22-5.619-.64-7.498-.86.2-4.339.52-8.678.92-12.997 4.639-.04 9.318.1 14.017.32-2.48 4.519-4.999 8.998-7.439 13.537zm-8.51-34.486-5.319-152.316c8.677 3.116 17.134 6.134 25.355 9.053l2.282 111.124c-.003 0-.008.001-.011.001-.32 11.277-.26 22.555-.12 33.832-10.139.187-13.042.808-22.187-1.694zm22.407 33.926c-2.599-1.36-2.579-2.719.08-4.059 2.559 1.36 2.539 2.7-.08 4.059zm3.743-269.098c21.75 8.728 43.454 17.238 65.12 25.531l-.698.016 1.961 87.444c-18.975-6.515-40.685-14.06-64.525-22.497zm29.954 104.607 5.531 133.208c-10.057.445-20.179 2.734-29.87-1.369-1.376-19.171-1.001-11.788-3.669-141.682 9.708 3.434 19.057 6.718 28.008 9.843zm-21.08 165.591c-2.859.8-3.859-.2-2.959-2.959 2.759-.8 3.759.2 2.959 2.959zm4.679-11.297c6.719 1.5 13.637 1.58 20.535 1.68-.16 3.739-.3 7.478-.46 11.217-4.239-.72-8.538-1.14-12.677-2.18-2.819-3.339-4.799-7.238-7.398-10.717zm9.158 75.142c5.099-2.059 10.478-3.379 15.956-4.039-1.34 7.378-10.778 3.579-15.956 4.039zm38.35-68.204c-1.52 2.419-3.559 4.519-5.739 6.339-3.819.96-7.818.08-11.637 0 .14-4.959-.08-10.797 4.919-13.577 5.039-1.16 13.237.62 12.457 7.238zm-17.522-26.82-5.464-131.582c10.032 3.49 19.527 6.768 28.403 9.813 2.776 123.806 2.836 114.568 1.961 123.215-8.373.47-16.717.105-24.9-1.446zm24.621 34.019c-2.56-1.34-2.479-2.719.22-4.159 2.459 1.339 2.399 2.739-.22 4.159zm4.324-244.694c21.342 8.124 42.649 16.037 63.931 23.748l1.677 85.034c-12.078-3.966-34.145-11.286-63.648-21.374zm4.029 179.711-1.974-88.045c9.667 3.303 18.515 6.303 26.462 8.98l-.589.01 1.896 112.802c-8.121.367-16.242.09-24.311-1.116-.413-17.666 1.011-28.631-1.484-32.631zm19.5 66.362c-3.739-4.219-7.039-8.858-8.958-14.197 4.979.12 9.978.62 14.857 1.7.18 4.159.44 8.338.68 12.497zm31.173 1.8c-4.539.94-9.018-.8-13.157-2.379-1.66-3.559-.34-7.678-.4-11.417 6.998-.14 14.017-.12 21.035.16-1.28 5.078-2.939 10.496-7.478 13.636zm14.296-32.253c-10.463 1.035-21.022.858-31.168-1.824l-1.86-110.646c13.012 4.364 23.094 7.694 29.72 9.867l1.728 87.624c.001.001 1.857 9.98 1.58 14.979z"/></svg>