<svg xmlns="http://www.w3.org/2000/svg" xmlns:xlink="http://www.w3.org/1999/xlink" width="573" height="198" viewBox="0 0 573 198">
    <defs>
        <path id="a" d="M0 .097h7.626V31.38H0z"/>
    </defs>
    <g fill="none" fill-rule="evenodd">
        <path fill="#9B9BA2" d="M409.052 197.55l-38.24-.007.015-98.023 38.24.006z" opacity=".2"/>
        <path fill="#606066" d="M351.055 197.54l51.146.008.011-71.79-51.145-.008z"/>
        <path fill="#565661" d="M436.895 195.236l-39.478-.006.01-66.143 39.479.007z"/>
        <path fill="#7A7A82" d="M433.456 119.584l-32.578-.005-3.45 9.508 39.477.007z"/>
        <path fill="#565661" d="M429.22 119.584l-24.104-.004.006-40.385 24.105.004z"/>
        <path fill="#565661" d="M427.523 79.39l-20.696-.004.002-16.262 20.697.004z"/>
        <path fill="#565661" d="M423.234 63.127l-12.113-.002.001-16.262 12.115.001z"/>
        <path fill="#565661" d="M426.322 63.128l-3.088-.001.002-16.263 3.088.001zM411.12 63.125h-3.087l.002-16.263h3.088z"/>
        <path fill="#7A7A82" d="M423.237 46.864l-12.114-.001 6.06-21.957z"/>
        <path fill="#565661" d="M411.108 46.863h-3.073l1.537-5.573zM426.32 46.865h-3.076l1.537-5.573z"/>
        <path fill="#8A8A92" d="M417.179 51.382c-.477 0-.862.302-.862.673l-.002 8.503h1.724l.002-8.503c0-.371-.385-.673-.862-.673M419.982 51.383c-.477 0-.864.301-.864.672l-.002 8.503 1.726.001.002-8.503c0-.372-.386-.673-.862-.673M414.448 51.382c-.477 0-.863.301-.863.672l-.002 8.503h1.725l.001-8.503c0-.37-.384-.672-.861-.672M417.174 80.534c-.477 0-.862.303-.862.673l-.006 37.273h1.724l.006-37.273c0-.37-.385-.673-.862-.673M419.978 80.535c-.478 0-.865.302-.865.672l-.006 37.274h1.726l.006-37.274c0-.37-.386-.672-.86-.672M414.443 80.534c-.477 0-.863.302-.863.672l-.006 37.274h1.724l.006-37.274c0-.37-.384-.672-.861-.672M410.938 80.534c-.477 0-.862.301-.862.672l-.006 37.272 1.724.001.006-37.273c0-.37-.385-.672-.862-.672M408.207 80.533c-.476 0-.862.302-.862.672l-.006 37.273 1.725.001.006-37.274c0-.37-.386-.672-.863-.672M426.824 80.536c-.477 0-.863.302-.863.672l-.006 37.273h1.726l.006-37.273c0-.37-.385-.672-.863-.672M424.094 80.536c-.477 0-.864.301-.864.672l-.006 37.273h1.726l.006-37.273c0-.37-.386-.672-.862-.672M417.166 131.575c-.477 0-.862.302-.862.672l-.01 60.31h1.724l.01-60.31c0-.37-.385-.672-.862-.672M419.97 131.575c-.478 0-.865.302-.865.672l-.01 60.31h1.726l.01-60.309c0-.37-.385-.673-.861-.673M414.435 131.574c-.476 0-.863.303-.863.672l-.01 60.31h1.725l.01-60.31c0-.37-.385-.672-.862-.672M410.93 131.574c-.476 0-.862.301-.862.672l-.01 60.31h1.724l.01-60.31c0-.37-.385-.672-.862-.672M408.2 131.573c-.476 0-.863.302-.863.673l-.01 60.31h1.725l.01-60.31c0-.37-.385-.673-.862-.673M404.251 131.573c-.476 0-.862.302-.862.672l-.01 60.31h1.725l.01-60.31c0-.37-.385-.672-.863-.672M401.52 131.572c-.476 0-.862.303-.862.672l-.01 60.31h1.726l.01-60.309c0-.37-.386-.673-.863-.673M433.742 131.577c-.476 0-.863.303-.863.672l-.01 60.31 1.726.001.01-60.31c0-.37-.386-.673-.863-.673M431.012 131.577c-.478 0-.863.302-.863.672l-.01 60.31h1.725l.01-60.31c0-.37-.385-.672-.862-.672M426.817 131.576c-.478 0-.863.303-.863.673l-.01 60.31h1.725l.01-60.31c0-.37-.385-.673-.862-.673M424.086 131.576c-.478 0-.863.302-.863.672l-.01 60.31h1.725l.01-60.31c0-.37-.385-.672-.862-.672M418.037 78.432h-1.725l.003-14.625h1.724zM420.84 78.433h-1.727l.003-14.626h1.726zM415.305 78.431h-1.724l.002-14.624h1.725zM412.267 78.43h-1.726l.003-14.624h1.726zM423.807 78.433h-1.725l.002-14.625h1.725z"/>
        <path fill="#606066" d="M572.95 197.576l-52.857-.009.005-37.82 52.858.01z"/>
        <path fill="#9B9BA2" d="M521.072 71.48v-5.952l-11.255-.002.002-6.126-33.177-.005-.002 6.126-11.254-.002-.001 5.952-9.289-.001-.02 126.087 74.265.011.02-126.087z" opacity=".2"/>
        <path fill="#51515B" d="M453.335 197.556l-38.39-.006.01-55.206 38.39.006z"/>
        <path fill="#51515B" d="M447.849 96.22l44.348.007-.016 101.336-44.349-.008z"/>
        <path fill="#9B9BA2" d="M211.458 197.518l-39.097-.006.02-117.609 39.095.006zM321.704 197.533l-53.126-.009.014-84.616 53.126.009z" opacity=".2"/>
        <path fill="#565661" d="M325.872 197.536l-52.858-.009.01-63.025 52.859.009z"/>
        <path fill="#7A7A82" d="M278.353 103.577l.113-.1-18.323-16.186-18.327 16.18.113.1h-.226l-.015 93.952 36.875.005.016-93.951z"/>
        <path fill="#9B9BA2" d="M136.566 67.757V64.64h-.226l.112-.112-18.321-18.283-18.328 18.277.112.112h-.226v3.117l-12.677-.002-.02 129.75 61.188.009.021-129.75z" opacity=".2"/>
        <path fill="#565661" d="M95.355 197.49l-29.26-.004.016-97.558 29.26.004z"/>
        <path fill="#606066" d="M423.87 167.959l22.373 29.596-60.111-.01-.143-27.251z"/>
        <path fill="#51515B" d="M361.207 125.687l54.323 71.863-73.397-.012z"/>
        <path fill="#565661" d="M63.223 158.95l23.779 38.54-42.284-.005z"/>
        <path fill="#7A7A82" d="M397.417 197.548l-18.628-.004.01-56.303 18.627.002z"/>
        <path fill="#51515B" d="M3.144 149.723l.675-7.454.594 7.526zM66.053 149.733l.675-7.454.593 7.526zM61.19 160.221h-6.505v-3.7l6.506.002zM18.78 160.215l-6.507-.001v-3.7l6.507.003zM57.38 151.49l.574-6.325.505 6.389z"/>
        <path fill="#51515B" d="M57.92 151.304a2.58 2.58 0 0 0-2.584 2.577v5.905h5.166l.001-5.904a2.58 2.58 0 0 0-2.583-2.578"/>
        <path fill="#8A8A92" d="M61.152 165.472l-6.468-.001v-7l3.235-1.684 3.234 1.686z"/>
        <path fill="#51515B" d="M14.989 151.484l.573-6.326.504 6.389z"/>
        <path fill="#51515B" d="M15.527 151.297a2.58 2.58 0 0 0-2.583 2.577v5.905l5.165.001.001-5.905a2.58 2.58 0 0 0-2.583-2.578"/>
        <path fill="#8A8A92" d="M18.76 165.465H12.29v-7l3.236-1.684 3.233 1.686z"/>
        <path fill="#51515B" d="M3.753 149.502a3.04 3.04 0 0 0-3.045 3.035v6.957h6.087v-6.956a3.04 3.04 0 0 0-3.042-3.036M70.496 158.677l-7.621-.001v-3.7l7.622.002z"/>
        <path fill="#51515B" d="M7.627 158.667l-7.62-.001v-3.7l7.62.002zM66.687 149.512a3.04 3.04 0 0 0-3.045 3.035v6.957h6.087v-6.956a3.039 3.039 0 0 0-3.042-3.036"/>
        <path fill="#A4999E" d="M80.345 166.205l-72.72-.012.002-7.253 72.72.01z"/>
        <path fill="#8A8A92" d="M7.626 166.194l-7.621-.001.002-8.246 3.81-1.984 3.81 1.985zM70.494 166.204l-7.62-.001v-8.245l3.811-1.985 3.81 1.985z"/>
        <path fill="#565661" d="M80.34 197.488l-72.72-.012.006-31.283 72.72.012z"/>
        <g transform="translate(0 166.096)">
            <mask id="b" fill="#fff">
                <use xlink:href="#a"/>
            </mask>
            <path fill="#9B9BA2" d="M7.62 31.38H0L.005.096l7.62.001z" mask="url(#b)"/>
        </g>
        <path fill="#9B9BA2" d="M70.49 197.486h-7.622l.005-31.283 7.622.001z"/>
        <path fill="#8A8A92" d="M8.25 166.266l8.964-5.26 9.187 5.262zM26.401 166.269l8.964-5.26 9.186 5.262zM44.552 166.272l8.964-5.26 9.186 5.262z"/>
        <path fill="#51515B" d="M35.474 179.87c-3.15 0-5.702 2.544-5.702 5.684l-.002 11.926 11.403.001.002-11.925c0-3.14-2.553-5.687-5.701-5.687M35.475 168.937c-3.149 0-5.701 2.545-5.702 5.688l11.404.001c0-3.142-2.553-5.689-5.702-5.689M53.626 168.94c-3.149 0-5.702 2.545-5.702 5.687l11.403.002a5.695 5.695 0 0 0-5.701-5.689M17.324 168.934c-3.148 0-5.702 2.545-5.703 5.688l11.405.001c0-3.142-2.553-5.688-5.702-5.689M17.323 179.866c-3.148 0-5.702 2.545-5.703 5.685l-.002 11.926 11.404.001.002-11.925c0-3.14-2.553-5.686-5.701-5.687M53.624 179.872c-3.148 0-5.701 2.545-5.701 5.685l-.003 11.925 11.403.002.002-11.925c0-3.14-2.552-5.687-5.701-5.687M4.856 169.542c0 .609-.496 1.103-1.107 1.103a1.106 1.106 0 0 1-1.107-1.103c0-.611.496-1.105 1.107-1.105.61 0 1.107.494 1.107 1.105M67.79 169.552c0 .608-.495 1.103-1.107 1.103a1.105 1.105 0 1 1 0-2.208c.612 0 1.107.494 1.107 1.105"/>
        <path fill="#606066" d="M17.323 181.132a4.59 4.59 0 0 0-4.595 4.584l-.003 11.761 9.19.002.001-11.762a4.59 4.59 0 0 0-4.593-4.585M35.474 181.135a4.591 4.591 0 0 0-4.596 4.583l-.002 11.762 9.19.002.001-11.762a4.59 4.59 0 0 0-4.593-4.585M53.624 181.138a4.59 4.59 0 0 0-4.595 4.583l-.002 11.762 9.19.001v-11.761a4.59 4.59 0 0 0-4.593-4.585M208.455 197.517l-32.548-.005.012-72.279 32.548.006zM143.554 197.507l-36.08-.006.01-64.065 36.08.006zM245.975 197.523l-36.08-.006.016-98.022 36.079.005z"/>
        <path fill="#51515B" d="M182.866 125.33l44.428 72.19-108.388-.017z"/>
        <path fill="#565661" d="M182.854 197.513l-38.653-.006.016-100.569 38.654.006z"/>
        <path fill="#51515B" d="M113.386 119.841l47.867 77.668-72.595-.01zM226.24 148.662l30.16 48.863-57.316-.01z"/>
        <path fill="#4D4D57" d="M279.568 154.573l26.518 42.96-60.111-.01-.183-42.958z"/>
        <path fill="#565661" d="M170.668 172.567l15.353 24.947-32.073-.005zM121.614 197.503l-40.99-.006.016-99.72 40.99.005z"/>
        <path fill="#565661" d="M121.63 97.782l-40.99-.006v-7.313l40.991.006z"/>
        <path fill="#4D4D57" d="M121.614 197.503l-30.15-.004.016-99.721 30.15.004z"/>
        <path fill="#8A8A92" d="M91.075 100.911l-8.938-.001v-1.494l8.938.002z"/>
        <path fill="#606066" d="M100.81 100.913l-8.938-.001v-1.494h8.939zM110.547 100.914h-8.937V99.42h8.937zM120.284 100.916l-8.938-.002V99.42l8.938.002z"/>
        <path fill="#8A8A92" d="M91.075 103.708l-8.939-.002v-1.491l8.939.002z"/>
        <path fill="#606066" d="M100.81 103.71l-8.938-.002v-1.492l8.938.002z"/>
        <path fill="#51515B" d="M110.546 103.71h-8.937v-1.492l8.937.002z"/>
        <path fill="#606066" d="M120.283 103.713l-8.938-.002v-1.491l8.938.001z"/>
        <path fill="#8A8A92" d="M91.074 106.539l-8.938-.002v-1.493l8.938.002z"/>
        <path fill="#606066" d="M100.81 106.54H91.87l.001-1.495 8.938.002zM110.546 106.542l-8.937-.001v-1.494l8.937.002zM120.283 106.543l-8.938-.001v-1.493l8.938.001z"/>
        <path fill="#8A8A92" d="M91.074 109.335l-8.939-.001v-1.492l8.939.002z"/>
        <path fill="#51515B" d="M100.81 109.337l-8.94-.001v-1.492l8.94.001z"/>
        <path fill="#606066" d="M110.545 109.338h-8.937v-1.493l8.937.002zM120.282 109.34l-8.937-.002v-1.491l8.937.002z"/>
        <path fill="#8A8A92" d="M91.074 112.025l-8.939-.002v-1.49h8.939z"/>
        <path fill="#606066" d="M100.809 112.026H91.87v-1.492l8.939.001zM110.545 112.028h-8.937v-1.493l8.937.002z"/>
        <path fill="#51515B" d="M120.282 112.03l-8.938-.002v-1.491l8.938.002z"/>
        <path fill="#8A8A92" d="M91.073 114.824l-8.938-.001v-1.492l8.938.001z"/>
        <path fill="#606066" d="M100.809 114.826l-8.939-.001v-1.493l8.939.001zM110.544 114.827h-8.936v-1.494l8.936.002zM120.282 114.829l-8.938-.002v-1.492l8.938.002z"/>
        <path fill="#8A8A92" d="M91.073 117.653l-8.939-.002v-1.491l8.939.001z"/>
        <path fill="#51515B" d="M100.808 117.654l-8.938-.001v-1.492l8.938.002zM110.544 117.656l-8.937-.001v-1.492l8.937.001z"/>
        <path fill="#606066" d="M120.281 117.657l-8.938-.002v-1.49h8.938z"/>
        <path fill="#8A8A92" d="M91.072 120.452l-8.938-.002v-1.491l8.938.001z"/>
        <path fill="#606066" d="M100.808 120.453h-8.939v-1.493l8.939.002z"/>
        <path fill="#51515B" d="M110.544 120.455l-8.937-.001v-1.492l8.937.001z"/>
        <path fill="#606066" d="M120.28 120.456l-8.937-.001v-1.492l8.938.002zM91.072 123.358l-8.939-.001v-1.493l8.939.001zM100.807 123.36l-8.938-.001v-1.494l8.938.002zM110.543 123.361h-8.937v-1.494l8.937.001z"/>
        <path fill="#51515B" d="M120.28 123.363l-8.937-.002v-1.493l8.937.002z"/>
        <path fill="#8A8A92" d="M91.071 126.156l-8.939-.002v-1.491l8.94.002z"/>
        <path fill="#606066" d="M100.807 126.157h-8.939v-1.493l8.939.002zM110.543 126.159l-8.937-.001v-1.492l8.937.001zM120.28 126.16l-8.938-.001v-1.492l8.937.002z"/>
        <path fill="#8A8A92" d="M91.071 128.985l-8.94-.002.001-1.492 8.939.002z"/>
        <path fill="#606066" d="M100.806 128.986h-8.938v-1.494l8.938.002z"/>
        <path fill="#51515B" d="M110.542 128.988l-8.937-.001v-1.493l8.937.002zM120.279 128.99l-8.938-.002v-1.492l8.938.001z"/>
        <path fill="#8A8A92" d="M91.07 131.783l-8.938-.001v-1.493l8.938.002z"/>
        <path fill="#606066" d="M100.806 131.785l-8.939-.001v-1.493l8.939.001zM110.542 131.786h-8.937v-1.494l8.937.002z"/>
        <path fill="#51515B" d="M120.279 131.788l-8.938-.002v-1.492l8.938.002z"/>
        <path fill="#8A8A92" d="M91.07 134.474l-8.939-.002v-1.493l8.939.002z"/>
        <path fill="#606066" d="M100.805 134.475h-8.938v-1.494l8.938.001zM110.541 134.477l-8.937-.001v-1.494l8.937.002zM120.278 134.479l-8.938-.002v-1.493l8.938.002z"/>
        <path fill="#8A8A92" d="M91.07 137.27l-8.94-.002v-1.491l8.94.001z"/>
        <path fill="#51515B" d="M100.805 137.27h-8.939l.001-1.492 8.938.002z"/>
        <path fill="#606066" d="M110.54 137.273l-8.936-.001v-1.492l8.937.001z"/>
        <path fill="#51515B" d="M120.278 137.274l-8.938-.001v-1.492l8.938.002z"/>
        <path fill="#606066" d="M91.069 140.1l-8.939-.001v-1.491l8.939.001zM100.804 140.102l-8.938-.001v-1.492l8.938.001zM110.54 140.103h-8.937v-1.493l8.937.002zM120.277 140.105l-8.937-.002v-1.49h8.937z"/>
        <path fill="#8A8A92" d="M91.069 142.897l-8.94-.002v-1.49h8.94z"/>
        <path fill="#51515B" d="M100.804 142.898h-8.939l.001-1.493 8.938.002z"/>
        <path fill="#606066" d="M110.54 142.9h-8.937v-1.493l8.937.002zM120.277 142.902l-8.938-.002v-1.491l8.938.001z"/>
        <path fill="#8A8A92" d="M91.068 145.473l-8.939-.001v-1.492l8.94.001z"/>
        <path fill="#606066" d="M100.804 145.475l-8.94-.001.002-1.493 8.938.002zM110.54 145.476h-8.938v-1.493l8.937.001zM120.277 145.478l-8.938-.002v-1.492l8.938.002z"/>
        <path fill="#8A8A92" d="M91.068 148.272l-8.939-.002v-1.493l8.939.002z"/>
        <path fill="#606066" d="M100.803 148.273h-8.939l.001-1.495 8.938.002z"/>
        <path fill="#51515B" d="M110.539 148.275l-8.937-.001v-1.494l8.937.002z"/>
        <path fill="#606066" d="M120.276 148.276l-8.938-.001v-1.493l8.938.001zM91.067 151.1l-8.938-.002v-1.49h8.938z"/>
        <path fill="#51515B" d="M100.803 151.101h-8.939v-1.493l8.939.002z"/>
        <path fill="#606066" d="M110.539 151.103h-8.937v-1.493l8.937.002zM120.276 151.105l-8.938-.002v-1.491l8.938.001z"/>
        <path fill="#8A8A92" d="M91.067 153.9l-8.939-.003v-1.493l8.939.001z"/>
        <path fill="#606066" d="M100.802 153.9h-8.938v-1.494h8.938zM110.538 153.902h-8.937v-1.495l8.937.001zM120.275 153.904l-8.938-.002v-1.494l8.938.002z"/>
        <path fill="#8A8A92" d="M91.067 156.588l-8.94-.002v-1.49l8.94.002z"/>
        <path fill="#606066" d="M100.802 156.59l-8.939-.001v-1.492l8.939.002zM110.538 156.591H101.6v-1.492l8.937.002zM120.275 156.593l-8.938-.002v-1.49l8.938.001zM91.066 159.387l-8.939-.001v-1.494l8.94.001zM100.802 159.389l-8.94-.001v-1.494h8.94z"/>
        <path fill="#51515B" d="M110.537 159.39H101.6v-1.494h8.937z"/>
        <path fill="#606066" d="M120.274 159.392l-8.937-.002v-1.494l8.937.002z"/>
        <path fill="#8A8A92" d="M91.066 162.216l-8.939-.001v-1.493l8.939.001z"/>
        <path fill="#51515B" d="M100.801 162.218l-8.939-.001v-1.494l8.94.002z"/>
        <path fill="#606066" d="M110.537 162.22l-8.937-.002v-1.493l8.937.001z"/>
        <path fill="#51515B" d="M120.274 162.221l-8.938-.002v-1.493l8.938.002z"/>
        <path fill="#8A8A92" d="M91.065 165.013l-8.938-.002v-1.491l8.938.002z"/>
        <path fill="#606066" d="M100.8 165.014h-8.938v-1.493l8.939.002zM110.536 165.016l-8.936-.001v-1.492l8.936.002zM120.274 165.018l-8.938-.002v-1.491l8.938.001z"/>
        <path fill="#8A8A92" d="M91.065 167.92l-8.94-.001.001-1.493 8.939.002z"/>
        <path fill="#606066" d="M100.8 167.922l-8.938-.001v-1.494l8.938.002z"/>
        <path fill="#51515B" d="M110.536 167.923H101.6v-1.494l8.937.001z"/>
        <path fill="#606066" d="M120.273 167.925l-8.938-.002v-1.493l8.938.002zM91.064 170.717l-8.94-.002.002-1.49h8.938z"/>
        <path fill="#51515B" d="M100.8 170.718H91.86v-1.493l8.939.002z"/>
        <path fill="#606066" d="M110.536 170.72h-8.938v-1.493l8.938.002zM120.272 170.722l-8.937-.002v-1.491l8.937.001z"/>
        <path fill="#8A8A92" d="M91.064 173.548l-8.94-.002v-1.493l8.94.002z"/>
        <path fill="#606066" d="M100.799 173.55l-8.939-.002.001-1.493 8.938.001zM110.535 173.55h-8.937v-1.494l8.937.002z"/>
        <path fill="#51515B" d="M120.272 173.553l-8.938-.002v-1.493l8.938.002z"/>
        <path fill="#8A8A92" d="M91.063 176.345l-8.938-.002v-1.49l8.938.001z"/>
        <path fill="#51515B" d="M100.799 176.346l-8.94-.001.002-1.491 8.938.001z"/>
        <path fill="#606066" d="M110.534 176.347h-8.936v-1.492l8.936.002zM120.271 176.35l-8.937-.003v-1.49l8.937.002z"/>
        <path fill="#8A8A92" d="M91.063 179.036l-8.939-.002v-1.493l8.939.002z"/>
        <path fill="#606066" d="M100.798 179.037H91.86v-1.494l8.938.001zM110.534 179.039h-8.937v-1.495l8.937.002zM120.271 179.04l-8.938-.001v-1.493l8.938.002z"/>
        <path fill="#8A8A92" d="M91.062 181.834l-8.938-.002v-1.492l8.938.001z"/>
        <path fill="#51515B" d="M100.798 181.835l-8.939-.001v-1.493l8.939.002z"/>
        <path fill="#606066" d="M110.534 181.836h-8.937v-1.493l8.937.001z"/>
        <path fill="#51515B" d="M120.27 181.838l-8.937-.002v-1.492l8.938.002z"/>
        <path fill="#8A8A92" d="M91.062 184.663l-8.939-.001v-1.493l8.939.001z"/>
        <path fill="#606066" d="M100.797 184.665l-8.938-.001v-1.494l8.938.002zM110.533 184.666h-8.937v-1.494l8.937.001zM120.27 184.668l-8.938-.002v-1.493l8.938.002zM91.061 187.46h-8.938v-1.495l8.938.002zM100.797 187.462h-8.939l.001-1.494h8.938zM110.533 187.464l-8.937-.001v-1.494l8.937.001z"/>
        <path fill="#51515B" d="M120.27 187.465l-8.938-.001v-1.494l8.938.002z"/>
        <path fill="#8A8A92" d="M91.061 190.265l-8.939-.002v-1.494l8.939.002z"/>
        <path fill="#51515B" d="M100.796 190.266h-8.938v-1.494h8.938zM110.532 190.268l-8.937-.001v-1.494l8.937.001z"/>
        <path fill="#606066" d="M120.27 190.27l-8.938-.002v-1.494l8.937.002zM91.06 192.954l-8.938-.002v-1.49h8.939z"/>
        <path fill="#51515B" d="M100.796 192.955h-8.939v-1.493l8.939.002z"/>
        <path fill="#606066" d="M110.532 192.957h-8.937v-1.493l8.937.002zM120.269 192.959l-8.938-.002v-1.491l8.938.001z"/>
        <path fill="#8A8A92" d="M91.06 195.752l-8.938-.001v-1.493l8.938.001z"/>
        <path fill="#606066" d="M100.796 195.754l-8.94-.001v-1.494l8.94.002zM110.531 195.755h-8.936v-1.494l8.936.001zM120.269 195.757l-8.938-.002v-1.493l8.938.002zM156.217 54.57l-2.889-25.172h-2.243l-2.896 25.17z"/>
        <path fill="#8A8A92" d="M157.55 54.064l-10.693-.001v1.73l10.694.002z"/>
        <path fill="#606066" d="M160.182 55.363l-15.958-.003-.001 4.833 15.958.003z"/>
        <path fill="#A4999E" d="M162.504 63.802l-20.605-.004V59.4l20.606.004z"/>
        <path fill="#565661" d="M163.814 197.51l-23.267-.003.021-134.767 23.268.003z"/>
        <path fill="#8A8A92" d="M147.116 197.508l-8.094-.001.02-126.088 8.094.001zM165.338 197.51h-8.094l.02-126.088 8.094.001z"/>
        <path fill="#565661" d="M147.116 197.508l-13.445-.002.005-24.954 13.444.002zM157.245 197.51l13.443.001.005-24.953-13.444-.002z"/>
        <path fill="#7A7A82" d="M147.12 172.554l-9.78-.002.015-85.49 9.779.002zM167.029 172.557l-9.78-.001.013-85.49h9.78z"/>
        <path fill="#606066" d="M140.083 171.689h-1.598l.012-82.987h1.6zM145.976 171.69h-1.6l.014-82.987h1.6zM143.073 171.69h-1.649l.013-82.988h1.65zM159.992 171.692h-1.6l.013-82.987h1.6zM165.884 171.693h-1.598l.013-82.986h1.599zM163.03 171.693h-1.746l.014-82.988 1.745.001zM152.983 161.738h-1.6l.016-95.487h1.6zM156.182 161.739h-1.6l.016-95.487h1.6zM149.785 161.738h-1.599l.015-95.487h1.6zM149.786 163.36a.798.798 0 0 0-.8-.798.8.8 0 0 0-.8.798v.004l-.005 30.826 1.6.001.004-30.826.001-.005M152.997 163.364a.8.8 0 0 0-.803-.8c-.444 0-.8.355-.804.796h-.006l-.005 30.832h1.6l.003-30.699a.635.635 0 0 0 .015-.13M156.186 163.364a.8.8 0 0 0-.804-.8.8.8 0 0 0-.803.8c0 .012.002.023.003.035l-.004 30.792h1.599l.004-30.789c.001-.013.005-.025.005-.038"/>
        <path fill="#8A8A92" d="M151.58 29.615l.632-29.76.62 29.76z"/>
        <path fill="#7A7A82" d="M164.5 195.466h1.6l.003-20.482h-1.599zM158.244 195.465h1.6l.003-20.483h-1.6zM167.692 195.467h1.599l.003-20.483h-1.599zM161.253 195.465h1.65l.004-20.482h-1.65zM139.677 195.462h-1.598l.003-20.482h1.599zM136.669 195.462h-1.599l.004-20.484 1.598.001zM145.827 195.463h-1.6l.004-20.483h1.6zM142.925 195.462h-1.65l.004-20.482h1.65z"/>
        <path fill="#606066" d="M158.985 87.066h1.598l.002-14.43h-1.598zM161.888 87.066h1.649l.002-14.43h-1.65zM145.41 87.063h-1.598l.002-14.43h1.6zM142.508 87.063h-1.65l.003-14.43h1.65zM212.67 16.084l-.665 21.203h1.322z"/>
        <path fill="#606066" d="M212.635 36.896a1.92 1.92 0 0 0-1.921 1.917l-.002 6.617 3.843.001v-6.617a1.92 1.92 0 0 0-1.92-1.918"/>
        <path fill="#7A7A82" d="M212.635 41.163a2.97 2.97 0 0 0-2.973 2.965l-.001 10.231 5.942.001.002-10.232a2.968 2.968 0 0 0-2.97-2.965"/>
        <path fill="#606066" d="M212.208 44.876l.387-1.798.458 1.798z"/>
        <path fill="#606066" d="M211.442 45.225l-.328-1.628 1.095 1.276zM210.984 45.7l-.648-1.04 1.104.569z"/>
        <path fill="#606066" d="M210.706 46.29l-.79-.696 1.067.098zM213.825 45.225l.33-1.628-1.097 1.276zM214.283 45.701l.649-1.04-1.105.568z"/>
        <path fill="#606066" d="M214.561 46.29l.789-.695-1.066.098z"/>
        <path fill="#565661" d="M212.634 44.968a4.225 4.225 0 0 0-4.23 4.218l-.003 14.567h8.46l.001-14.565c0-2.33-1.892-4.22-4.228-4.22"/>
        <path fill="#606066" d="M212.067 48.947l.515-2.392.609 2.392zM211.049 49.411l-.438-2.165 1.456 1.697zM210.44 50.045l-.861-1.383 1.467.754z"/>
        <path fill="#606066" d="M210.069 50.827l-1.047-.924 1.417.13zM214.217 49.412l.438-2.164-1.456 1.695zM214.827 50.046l.862-1.383-1.47.754z"/>
        <path fill="#606066" d="M215.197 50.828l1.048-.924-1.418.129z"/>
        <path fill="#7A7A82" d="M212.633 49.023c-2.95 0-5.342 2.385-5.342 5.328l-.003 18.397 10.682.002.003-18.398a5.336 5.336 0 0 0-5.34-5.33"/>
        <path fill="#606066" d="M207.343 74.294h-3.304l.003-17.257 3.303.001zM221.219 74.296h-3.304l.003-17.257 3.303.001zM211.953 53.069l.617-2.878.734 2.878zM210.725 53.627l-.526-2.606 1.754 2.042zM209.991 54.39l-1.035-1.663 1.766.908z"/>
        <path fill="#606066" d="M209.547 55.333l-1.262-1.115 1.706.16zM214.54 53.628l.526-2.606-1.752 2.04zM215.272 54.39l1.038-1.662-1.768.907z"/>
        <path fill="#606066" d="M215.717 55.334l1.262-1.114-1.707.158z"/>
        <path fill="#8A8A92" d="M212.632 56.708a4.443 4.443 0 0 0-4.451 4.437l-.003 15.326 8.9.002.002-15.326a4.442 4.442 0 0 0-4.448-4.44"/>
        <path fill="#565661" d="M218.796 73.21l.003-14.164c0-3.399-2.761-6.154-6.166-6.154-3.406 0-6.168 2.754-6.17 6.152l-.002 14.165-3.788-.001-.02 123.568 19.913.003.02-123.568h-3.79z"/>
        <path fill="#606066" d="M211.852 56.598l.713-3.32.847 3.32zM210.437 57.244l-.607-3.007 2.022 2.357zM209.59 58.122l-1.195-1.92 2.039 1.048z"/>
        <path fill="#606066" d="M209.077 59.211l-1.455-1.285 1.968.183zM214.838 57.245l.607-3.007-2.022 2.356zM215.684 58.123l1.196-1.918-2.04 1.046z"/>
        <path fill="#606066" d="M216.197 59.212l1.455-1.284-1.968.181z"/>
        <path fill="#7A7A82" d="M212.632 56.488a3.705 3.705 0 0 0-3.71 3.702l-.003 12.779 7.42.001.002-12.778a3.705 3.705 0 0 0-3.709-3.704M206.324 168.895l-7.333-.001.003-20.237 7.334.002zM226.236 168.898l-7.333-.001.002-20.237 7.335.002z"/>
        <path fill="#606066" d="M206.385 197.517l-10.079-.002.005-33.55 10.08.002zM228.972 197.52l-10.078-.001.004-33.55 10.08.002z"/>
        <path fill="#606066" d="M228.972 197.52l-32.665-.005.001-8.963 32.666.005z"/>
        <path fill="#8A8A92" d="M212.662 59.61c-.365 0-.66.421-.66 1.59l-.021 124.853h1.322l.02-124.853c0-1.169-.297-1.59-.661-1.59M209.688 74.82c-.363 0-.658.42-.658 1.59l-.018 109.642h1.317l.018-109.643c0-1.169-.296-1.588-.659-1.588M215.63 74.822c-.33 0-.596.419-.597 1.588l-.018 109.643h1.195l.017-109.643c0-1.17-.267-1.588-.597-1.588M206.99 75.348h-4.317v-1.055l4.317.001zM206.99 77.526h-4.317V76.47l4.317.001zM206.99 79.908h-4.318v-1.056l4.317.001zM206.989 82.085l-4.317-.001V81.03l4.317.001zM206.989 84.444l-4.317-.001v-1.055h4.317zM206.989 86.621h-4.317v-1.054h4.317zM206.988 89.003h-4.317v-1.054h4.317zM206.988 91.181h-4.317v-1.055l4.317.001zM206.987 93.618h-4.317v-1.055h4.317zM206.987 95.795h-4.317V94.74h4.317zM206.986 98.177h-4.316v-1.055h4.316zM206.986 100.355h-4.317V99.3l4.317.001zM206.986 102.715l-4.317-.001v-1.055h4.317zM206.986 104.891h-4.317v-1.054h4.317zM206.985 107.274h-4.317v-1.056h4.317zM206.985 109.451h-4.317v-1.055l4.317.001zM206.984 111.668h-4.316v-1.055l4.316.001zM206.984 113.847l-4.317-.001v-1.056l4.317.001zM206.984 116.229l-4.317-.001v-1.055l4.317.001zM206.983 118.407l-4.317-.001v-1.056h4.317zM206.983 120.764h-4.317v-1.054l4.317.001zM206.983 122.944l-4.317-.001v-1.056l4.317.001zM206.982 125.325h-4.317v-1.055l4.317.001zM206.982 127.503l-4.317-.001v-1.054h4.317zM206.981 129.938h-4.316v-1.055l4.316.001zM206.981 132.117l-4.317-.001v-1.054h4.317zM206.98 134.498h-4.316v-1.055l4.317.001zM206.98 136.677l-4.317-.001v-1.056l4.317.001zM206.98 139.035l-4.317-.001v-1.054h4.317zM206.98 141.213h-4.317v-1.056h4.317zM206.98 143.594h-4.318v-1.054h4.317zM206.979 145.771h-4.317v-1.054l4.317.001zM206.979 147.998h-4.317v-1.055l4.317.001zM222.586 75.35h-4.318v-1.054h4.318zM222.586 77.528h-4.318v-1.055h4.318zM222.585 79.91h-4.318v-1.055h4.318zM222.585 82.087h-4.318v-1.054h4.318zM222.584 84.446h-4.318V83.39h4.318zM222.584 86.624l-4.318-.001v-1.054l4.318.001zM222.583 89.006h-4.318l.001-1.055 4.318.001zM222.583 91.184l-4.318-.001v-1.054h4.318zM222.582 93.62h-4.317v-1.055l4.318.001zM222.582 95.798l-4.317-.001v-1.055h4.317zM222.582 98.18l-4.317-.001v-1.055l4.317.001zM222.581 100.358l-4.317-.001v-1.054h4.317zM222.581 102.717h-4.317v-1.056l4.317.001zM222.58 104.894h-4.317v-1.055l4.319.001zM222.58 107.277l-4.317-.001v-1.056l4.318.001zM222.58 109.454l-4.318-.001v-1.054h4.319zM222.58 111.67h-4.318v-1.054h4.318zM222.58 113.85l-4.318-.002v-1.055h4.318zM222.579 116.231h-4.318v-1.055h4.318zM222.579 118.41l-4.318-.002v-1.055h4.318zM222.578 120.767h-4.318v-1.054h4.318zM222.578 122.946h-4.318v-1.056h4.318zM222.577 125.328l-4.317-.001v-1.054h4.318zM222.577 127.505h-4.317v-1.054h4.317zM222.577 129.94h-4.317v-1.054h4.317zM222.576 132.12l-4.317-.001v-1.054h4.317zM222.576 134.5h-4.317v-1.054h4.317zM222.576 136.68l-4.318-.002v-1.055h4.318zM222.576 139.037h-4.318v-1.055l4.318.001zM222.575 141.216l-4.318-.001v-1.056h4.319zM222.575 143.597l-4.318-.001v-1.054h4.318zM222.575 145.774l-4.319-.001.001-1.053h4.318zM222.574 148h-4.318v-1.054h4.318z"/>
        <path fill="#565661" d="M258.296 197.525l-25.022-.003.013-75.64 25.022.005z"/>
        <path fill="#565661" d="M258.296 197.525l-15.679-.003.012-73.868 15.679.003z"/>
        <path fill="#8A8A92" d="M253.052 120.04c-.893-2.836-3.802-4.917-7.255-4.918-3.45 0-6.358 2.08-7.254 4.917h-5.256v6.764l9.387.001a2.6 2.6 0 0 1-.02-.307c0-1.556 1.408-2.82 3.142-2.819 1.737 0 3.144 1.264 3.144 2.82a2.6 2.6 0 0 1-.02.307l9.388.002v-6.765l-5.256-.001z"/>
        <path fill="#565661" d="M251.315 122.638c0-2.732-2.47-4.948-5.517-4.95-3.048 0-5.519 2.216-5.52 4.948h-6.992v1.177l8.349.002v-1.179c0-2.061 1.865-3.733 4.163-3.732 2.298 0 4.162 1.672 4.162 3.734h-.006v1.178l8.353.002v-1.179h-6.992z"/>
        <path fill="#8A8A92" d="M245.796 126.122c-1.04 0-1.885.757-1.886 1.69l-.01 69.71 3.77.002.011-69.712c0-.932-.843-1.69-1.885-1.69"/>
        <path fill="#A4999E" d="M235.068 130.167h1.633v-1.791h-1.633zM239.151 130.168h-1.632v-1.792h1.633z"/>
        <path fill="#7A7A82" d="M241.511 130.168h-1.632v-1.792h1.633z"/>
        <path fill="#A4999E" d="M236.7 132.935h-1.633v-1.79h1.634zM239.151 132.936h-1.633v-1.791h1.633zM241.511 132.936h-1.633v-1.79h1.633zM235.067 135.542h1.633v-1.793h-1.633z"/>
        <path fill="#7A7A82" d="M239.15 135.542h-1.633l.001-1.792h1.633z"/>
        <path fill="#A4999E" d="M241.51 135.543h-1.632v-1.793h1.633zM236.7 138.308h-1.634v-1.79h1.634z"/>
        <path fill="#7A7A82" d="M237.517 138.309h1.633v-1.79h-1.633z"/>
        <path fill="#A4999E" d="M241.51 138.31h-1.633v-1.79h1.633z"/>
        <path fill="#7A7A82" d="M235.066 141.083h1.634v-1.791h-1.634z"/>
        <path fill="#A4999E" d="M239.15 141.084h-1.633v-1.792h1.633z"/>
        <path fill="#7A7A82" d="M241.51 141.084h-1.633v-1.792h1.634z"/>
        <path fill="#A4999E" d="M236.699 143.854h-1.634v-1.793h1.634zM237.516 143.855h1.633v-1.794h-1.633zM241.51 143.855h-1.634v-1.794h1.634zM235.065 146.458h1.634v-1.792h-1.634z"/>
        <path fill="#7A7A82" d="M239.149 146.458h-1.633v-1.791h1.633z"/>
        <path fill="#A4999E" d="M241.509 146.459h-1.633v-1.792h1.634zM236.698 149.226h-1.634l.001-1.792h1.634zM239.149 149.227h-1.633v-1.792h1.633zM241.509 149.227h-1.634l.001-1.792h1.633zM235.064 152.006h1.634v-1.79h-1.634zM239.148 152.007h-1.633v-1.791h1.634zM241.508 152.007h-1.633v-1.79h1.634zM236.697 154.775h-1.634l.001-1.792h1.634zM239.148 154.776h-1.633v-1.792h1.633zM241.508 154.776h-1.634l.001-1.792h1.633z"/>
        <path fill="#7A7A82" d="M235.063 157.38h1.634v-1.793h-1.634z"/>
        <path fill="#A4999E" d="M239.147 157.381h-1.633v-1.793h1.634zM241.507 157.382h-1.633v-1.794h1.634zM236.696 160.147h-1.634l.001-1.79h1.634zM239.147 160.148h-1.633v-1.79h1.633zM241.507 160.148h-1.633v-1.79h1.633zM235.062 162.925h1.634v-1.795h-1.634zM239.146 162.925h-1.633l.001-1.794h1.633z"/>
        <path fill="#7A7A82" d="M241.506 162.926h-1.632v-1.795h1.633z"/>
        <path fill="#A4999E" d="M236.695 165.693h-1.633V163.9h1.634zM237.513 165.694h1.633V163.9h-1.633zM241.506 165.694h-1.633V163.9h1.633zM235.062 168.297h1.633v-1.792h-1.633zM239.145 168.297h-1.633l.001-1.791h1.633zM241.506 168.298h-1.633v-1.792h1.633zM236.694 171.065h-1.633v-1.791h1.634z"/>
        <path fill="#7A7A82" d="M239.145 171.066h-1.633v-1.792h1.633z"/>
        <path fill="#A4999E" d="M241.506 171.066h-1.634v-1.792h1.634zM235.06 173.643h1.634v-1.793h-1.633zM239.144 173.644h-1.632v-1.794h1.633zM241.505 173.644h-1.633v-1.793h1.633z"/>
        <path fill="#7A7A82" d="M236.694 176.41h-1.634v-1.792h1.634z"/>
        <path fill="#A4999E" d="M239.144 176.41h-1.632v-1.791h1.632zM241.505 176.41h-1.634v-1.791h1.634zM235.06 179.19h1.634v-1.792h-1.634zM239.143 179.19h-1.632v-1.792h1.632zM241.504 179.19h-1.633V177.4h1.633zM235.06 181.958h1.633v-1.791h-1.634zM239.143 181.959h-1.632v-1.791h1.632zM241.504 181.959h-1.634v-1.791h1.634zM235.06 184.565h1.633v-1.794h-1.634zM237.51 184.565h1.632v-1.793h-1.633z"/>
        <path fill="#7A7A82" d="M241.503 184.565h-1.633v-1.793h1.633z"/>
        <path fill="#A4999E" d="M236.692 187.333h-1.634v-1.792h1.634zM239.143 187.333h-1.633v-1.792h1.633zM241.503 187.334h-1.634v-1.792h1.634z"/>
        <path fill="#7A7A82" d="M236.692 190.108h-1.634v-1.791h1.634z"/>
        <path fill="#A4999E" d="M239.142 190.108h-1.633v-1.79h1.633zM241.502 190.109h-1.633v-1.791h1.633zM235.057 192.876h1.634v-1.792h-1.634z"/>
        <path fill="#7A7A82" d="M239.141 192.876h-1.632v-1.792h1.633z"/>
        <path fill="#A4999E" d="M241.501 192.877h-1.632v-1.793h1.633zM235.057 195.48h1.634v-1.79h-1.634zM239.141 195.481h-1.633v-1.79h1.633zM241.501 195.482h-1.633v-1.79h1.633z"/>
        <path fill="#7A7A82" d="M251.646 130.17h-1.633v-1.792h1.634z"/>
        <path fill="#A4999E" d="M254.097 130.17h-1.634v-1.792h1.635z"/>
        <path fill="#7A7A82" d="M256.458 130.17h-1.634v-1.791h1.634z"/>
        <path fill="#A4999E" d="M251.646 132.938h-1.634l.001-1.791h1.633zM254.097 132.938h-1.635v-1.79h1.635zM256.457 132.939h-1.633v-1.791h1.634zM251.645 135.544h-1.633v-1.792h1.634z"/>
        <path fill="#7A7A82" d="M254.096 135.545h-1.635l.001-1.793h1.635z"/>
        <path fill="#A4999E" d="M256.457 135.545h-1.634v-1.792h1.634zM251.645 138.311h-1.633v-1.79h1.633zM254.096 138.311h-1.635v-1.79h1.635zM256.456 138.312h-1.633v-1.79h1.634z"/>
        <path fill="#7A7A82" d="M251.644 141.086h-1.632v-1.792h1.633z"/>
        <path fill="#A4999E" d="M254.095 141.086h-1.634v-1.792h1.635zM256.456 141.087h-1.634v-1.792h1.634zM251.644 143.857h-1.633v-1.794h1.633zM254.095 143.857h-1.634v-1.794h1.634zM256.455 143.857h-1.633v-1.793h1.634zM251.644 146.46h-1.633v-1.791h1.633zM254.094 146.461h-1.634v-1.792h1.635zM256.455 146.461h-1.634v-1.791h1.634zM251.644 149.229h-1.634v-1.792h1.634z"/>
        <path fill="#7A7A82" d="M254.094 149.23h-1.634v-1.793h1.634z"/>
        <path fill="#A4999E" d="M256.455 149.23h-1.634v-1.792h1.634zM251.643 152.009h-1.633v-1.791h1.634zM254.093 152.01h-1.634v-1.792h1.635zM256.455 152.01h-1.635v-1.791h1.635z"/>
        <path fill="#7A7A82" d="M251.643 154.778h-1.634v-1.792h1.634z"/>
        <path fill="#A4999E" d="M254.093 154.778h-1.634v-1.792h1.634zM256.454 154.779h-1.634v-1.792h1.635zM251.642 157.383h-1.633v-1.793h1.634zM254.093 157.384h-1.635l.001-1.794h1.634zM256.454 157.384h-1.635l.001-1.793h1.634zM251.642 160.15h-1.634l.001-1.79h1.633zM254.093 160.15h-1.635v-1.79h1.635z"/>
        <path fill="#7A7A82" d="M256.453 160.15h-1.634v-1.79h1.635z"/>
        <path fill="#A4999E" d="M251.641 162.927h-1.633v-1.794h1.634zM254.092 162.928h-1.635l.001-1.795h1.635zM256.453 162.928h-1.635l.001-1.794h1.634zM251.641 165.696h-1.634l.001-1.794h1.633z"/>
        <path fill="#7A7A82" d="M254.092 165.696h-1.635v-1.793h1.635z"/>
        <path fill="#A4999E" d="M256.452 165.696h-1.634v-1.793h1.635zM251.64 168.3h-1.633v-1.792h1.633zM254.09 168.3h-1.634l.001-1.792h1.634zM256.452 168.3h-1.634v-1.791h1.634z"/>
        <path fill="#7A7A82" d="M251.64 171.068h-1.633v-1.792h1.633z"/>
        <path fill="#A4999E" d="M254.09 171.068h-1.634v-1.792h1.635zM256.451 171.069h-1.633v-1.792h1.634zM251.64 173.646h-1.633v-1.794h1.632zM254.09 173.646h-1.634v-1.793h1.634z"/>
        <path fill="#7A7A82" d="M256.451 173.647h-1.634v-1.794h1.634z"/>
        <path fill="#A4999E" d="M251.64 176.413h-1.634v-1.792h1.633zM254.09 176.413h-1.634v-1.792h1.634zM256.45 176.413h-1.633v-1.791h1.634zM251.638 179.192h-1.632v-1.791h1.632zM254.09 179.193h-1.635V177.4h1.634zM256.45 179.193h-1.634v-1.792h1.634zM251.638 181.96h-1.633v-1.79h1.633z"/>
        <path fill="#7A7A82" d="M254.09 181.961h-1.635v-1.79h1.634z"/>
        <path fill="#A4999E" d="M256.45 181.962h-1.634v-1.791h1.634zM251.638 184.567h-1.633v-1.793h1.633zM254.088 184.567h-1.634v-1.793h1.634z"/>
        <path fill="#7A7A82" d="M256.45 184.568h-1.635v-1.794h1.635z"/>
        <path fill="#A4999E" d="M251.638 187.335h-1.634v-1.791h1.634zM254.088 187.336h-1.634v-1.792h1.634zM256.449 187.336h-1.634v-1.792h1.634zM251.637 190.11h-1.634l.001-1.79h1.633z"/>
        <path fill="#7A7A82" d="M254.088 190.11h-1.635v-1.79h1.635z"/>
        <path fill="#A4999E" d="M256.449 190.111h-1.635v-1.79h1.635zM251.636 192.879h-1.633v-1.793h1.634zM254.087 192.879h-1.634v-1.793h1.635z"/>
        <path fill="#7A7A82" d="M256.448 192.88h-1.634v-1.793h1.634z"/>
        <path fill="#A4999E" d="M251.636 195.483h-1.634l.001-1.79h1.633zM254.087 195.484h-1.635v-1.79h1.635zM256.448 195.484h-1.635v-1.79h1.635z"/>
        <path fill="#565661" d="M121.63 97.782l-30.15-.004.001-7.313 30.15.004z"/>
        <path fill="#00525C" d="M70.067 192.346c-2.547.004-1.479-13.843.49-14.089 1.54-.192 3.021.52 3.89 2.069 1.935 3.454 3.626 12.006-4.38 12.02"/>
        <path fill="#005E63" d="M70.067 192.346c-2.547.004-6.353-2.78-4.554-8.76 1.01-3.356 3.075-5.083 5.044-5.329-.006 2.906-.006 9.454-.04 14.08-.147.005-.297.009-.45.009"/>
        <path fill="#684500" d="M69.976 197.489l.122-6.952-1.019-2.467 1.049 1.823.428-6.516.231 7.16 1.17-1.57-1.079 2.391.088 6.13z"/>
        <path fill="#565661" d="M455.604 105.037h-2.078v-2.281h2.078zM458.723 105.037h-2.078v-2.28h2.078zM461.725 105.038h-2.078v-2.281h2.078z"/>
        <path fill="#8A8A92" d="M455.603 108.558h-2.078v-2.28h2.079zM458.722 108.558h-2.078v-2.28h2.079z"/>
        <path fill="#565661" d="M461.724 108.558h-2.078l.001-2.28h2.078zM455.602 111.874h-2.077v-2.28h2.078zM458.72 111.874h-2.077v-2.28h2.079zM461.723 111.875h-2.077v-2.28h2.078zM455.602 115.396h-2.078v-2.279h2.078zM458.72 115.396h-2.077v-2.278h2.078z"/>
        <path fill="#A4999E" d="M461.723 115.397h-2.078v-2.279h2.078z"/>
        <path fill="#565661" d="M455.601 118.927h-2.078l.001-2.28h2.078z"/>
        <path fill="#8A8A92" d="M458.72 118.928h-2.078l.001-2.28h2.078z"/>
        <path fill="#565661" d="M461.723 118.928h-2.078v-2.28h2.078zM455.6 122.45h-2.077v-2.279h2.078zM458.72 122.45h-2.079l.001-2.279h2.078zM461.722 122.451h-2.078v-2.28h2.079zM455.6 125.766h-2.078v-2.28h2.078z"/>
        <path fill="#8A8A92" d="M458.72 125.766h-2.079v-2.28h2.078z"/>
        <path fill="#565661" d="M461.722 125.767h-2.078v-2.28h2.078zM455.6 129.289h-2.078v-2.28h2.078z"/>
        <path fill="#8A8A92" d="M458.718 129.29h-2.078l.001-2.28h2.078zM461.72 129.29h-2.077v-2.28h2.079z"/>
        <path fill="#565661" d="M455.599 132.825h-2.077v-2.28h2.078zM458.718 132.826h-2.078v-2.28h2.078zM461.72 132.826h-2.077v-2.28h2.078zM455.599 136.348h-2.078v-2.28h2.078zM458.718 136.348h-2.078v-2.279h2.078zM461.72 136.348h-2.078v-2.278h2.078zM455.598 139.664h-2.078v-2.28h2.079z"/>
        <path fill="#8A8A92" d="M458.717 139.664h-2.078v-2.28h2.079z"/>
        <path fill="#565661" d="M461.72 139.665h-2.079l.001-2.28h2.078zM455.597 143.186h-2.077v-2.28h2.078zM458.716 143.187h-2.078v-2.28h2.079zM461.718 143.187h-2.077v-2.28h2.078z"/>
        <path fill="#A4999E" d="M455.597 146.717h-2.078v-2.28h2.078z"/>
        <path fill="#565661" d="M458.716 146.718h-2.078v-2.28h2.078zM461.718 146.718h-2.078v-2.28h2.078zM455.596 150.24h-2.078l.001-2.28h2.078zM458.715 150.24h-2.078v-2.28h2.079zM461.718 150.24h-2.078v-2.28h2.078zM455.595 153.554h-2.077v-2.278h2.078z"/>
        <path fill="#8A8A92" d="M458.715 153.555h-2.079l.001-2.279h2.078z"/>
        <path fill="#565661" d="M461.717 153.555h-2.077v-2.279h2.078zM455.595 157.078h-2.078v-2.28h2.078zM458.714 157.079h-2.078v-2.28h2.078zM461.717 157.079h-2.078v-2.28h2.078zM455.595 160.357h-2.078v-2.28h2.078zM458.713 160.357h-2.078l.001-2.28h2.078zM461.716 160.358h-2.078v-2.28h2.079zM455.595 163.878h-2.078v-2.28h2.078z"/>
        <path fill="#8A8A92" d="M458.713 163.879h-2.079l.001-2.28h2.078z"/>
        <path fill="#565661" d="M461.716 163.88h-2.078v-2.28h2.078zM455.594 167.415h-2.078v-2.28h2.078zM458.713 167.416h-2.078v-2.28h2.078zM461.715 167.416h-2.078v-2.28h2.078zM455.593 170.938h-2.078v-2.279h2.079z"/>
        <path fill="#8A8A92" d="M458.712 170.938h-2.078v-2.279h2.079z"/>
        <path fill="#565661" d="M461.714 170.939h-2.078l.001-2.28h2.078zM455.593 174.252h-2.078v-2.278h2.078zM458.712 174.253h-2.078v-2.279h2.078zM461.714 174.253h-2.078v-2.279h2.078zM455.592 177.775h-2.078v-2.28h2.078zM458.71 177.776h-2.077v-2.28h2.078z"/>
        <path fill="#8A8A92" d="M461.713 177.776h-2.078v-2.28h2.078z"/>
        <path fill="#565661" d="M455.591 181.308h-2.078l.001-2.28h2.078zM458.71 181.308h-2.078v-2.28h2.079zM461.713 181.308h-2.078v-2.28h2.078zM465.776 105.039h2.08v-2.281h-2.08zM470.973 105.04h-2.08v-2.282h2.08zM473.977 105.04h-2.079v-2.281h2.079zM467.856 108.56h-2.08v-2.28h2.08zM470.973 108.56h-2.08v-2.28h2.08zM473.976 108.56h-2.079l.001-2.279h2.079zM467.856 111.875h-2.081v-2.28h2.08z"/>
        <path fill="#8A8A92" d="M470.973 111.876h-2.082l.001-2.28h2.08z"/>
        <path fill="#565661" d="M473.975 111.877h-2.078v-2.28h2.079zM467.855 115.398h-2.08v-2.279h2.08zM470.972 115.399h-2.08v-2.28h2.08zM473.975 115.399h-2.079v-2.279h2.08zM467.854 118.93h-2.08l.001-2.28h2.08z"/>
        <path fill="#8A8A92" d="M470.97 118.93h-2.08l.001-2.28h2.08z"/>
        <path fill="#565661" d="M473.974 118.93h-2.078v-2.28h2.08zM467.853 122.452h-2.08l.001-2.28 2.08.001zM470.97 122.453h-2.08v-2.28h2.081zM473.973 122.453h-2.078v-2.28h2.08zM467.853 125.768h-2.08v-2.28h2.08z"/>
        <path fill="#8A8A92" d="M470.97 125.768h-2.08v-2.28h2.08z"/>
        <path fill="#565661" d="M473.973 125.769h-2.078v-2.28h2.078zM467.852 129.291h-2.08l.001-2.28h2.08zM470.97 129.291h-2.081v-2.28h2.081z"/>
        <path fill="#A4999E" d="M473.973 129.292h-2.08l.002-2.28h2.078z"/>
        <path fill="#8A8A92" d="M467.852 132.828h-2.08v-2.28h2.08z"/>
        <path fill="#565661" d="M470.97 132.828h-2.082v-2.28h2.081zM473.972 132.828h-2.078v-2.28h2.079zM465.771 136.35h2.08v-2.28h-2.08zM470.968 136.35h-2.08v-2.279h2.08zM473.972 136.35h-2.08v-2.278h2.08zM467.85 139.665h-2.08l.002-2.28h2.08zM470.968 139.666h-2.081v-2.28h2.081z"/>
        <path fill="#A4999E" d="M473.971 139.667h-2.079l.001-2.28h2.079z"/>
        <path fill="#565661" d="M467.85 143.188h-2.08v-2.28h2.08z"/>
        <path fill="#8A8A92" d="M470.968 143.189h-2.082l.001-2.28h2.08z"/>
        <path fill="#565661" d="M473.97 143.189h-2.078v-2.28h2.079zM465.77 146.72h2.08v-2.28h-2.08zM470.967 146.72h-2.08v-2.28h2.08zM473.97 146.72h-2.079v-2.28h2.08z"/>
        <path fill="#A4999E" d="M467.849 150.241h-2.08l.001-2.28h2.08z"/>
        <path fill="#565661" d="M470.966 150.242h-2.08v-2.28h2.08zM473.97 150.243h-2.08l.001-2.28h2.08zM467.849 153.556h-2.08v-2.279h2.08zM470.966 153.557h-2.08v-2.279h2.08zM473.97 153.557h-2.08v-2.279h2.08zM467.848 157.08h-2.08v-2.28h2.08zM470.965 157.08h-2.08v-2.28h2.08zM473.968 157.081h-2.078v-2.28h2.078zM467.847 160.359h-2.08l.001-2.28h2.08zM470.964 160.36h-2.08v-2.281h2.081zM473.968 160.36h-2.08l.002-2.28h2.078zM467.847 163.88h-2.08v-2.28h2.08z"/>
        <path fill="#8A8A92" d="M470.964 163.88h-2.08v-2.279h2.08z"/>
        <path fill="#565661" d="M473.968 163.881h-2.08v-2.28h2.08zM467.846 167.418h-2.08v-2.28h2.08zM470.963 167.418h-2.08v-2.28h2.08zM473.967 167.418h-2.079v-2.28h2.079z"/>
        <path fill="#8A8A92" d="M467.846 170.94h-2.08v-2.28h2.08z"/>
        <path fill="#565661" d="M470.963 170.94h-2.08v-2.278h2.08zM473.966 170.94h-2.079l.001-2.278h2.079zM467.846 174.254h-2.081v-2.278h2.08zM470.963 174.255h-2.08v-2.279h2.08z"/>
        <path fill="#8A8A92" d="M473.966 174.255h-2.079v-2.278h2.079z"/>
        <path fill="#565661" d="M467.845 177.777h-2.08v-2.28h2.08z"/>
        <path fill="#8A8A92" d="M470.962 177.778h-2.08v-2.28h2.08z"/>
        <path fill="#565661" d="M473.965 177.778h-2.079v-2.28h2.08zM467.844 181.31h-2.08l.001-2.281h2.08zM470.96 181.31h-2.08l.001-2.28h2.08zM473.964 181.31h-2.079l.001-2.28h2.08zM480.396 105.04h-2.078v-2.28h2.078zM481.434 105.041h2.08v-2.28h-2.08z"/>
        <path fill="#8A8A92" d="M484.44 105.041h2.079v-2.28h-2.08z"/>
        <path fill="#565661" d="M480.395 108.561h-2.078v-2.28h2.079z"/>
        <path fill="#8A8A92" d="M483.513 108.562h-2.079v-2.28h2.08z"/>
        <path fill="#565661" d="M486.518 108.563h-2.079v-2.28h2.08z"/>
        <path fill="#8A8A92" d="M480.395 111.878h-2.079v-2.28h2.079z"/>
        <path fill="#565661" d="M483.513 111.878h-2.08l.001-2.28h2.079zM486.517 111.879h-2.079l.001-2.28h2.079zM480.394 115.4h-2.078v-2.279h2.078z"/>
        <path fill="#8A8A92" d="M483.512 115.4h-2.079v-2.278h2.079z"/>
        <path fill="#565661" d="M486.517 115.401h-2.079v-2.279h2.079zM480.393 118.931h-2.078l.001-2.28h2.078zM483.511 118.932h-2.079l.001-2.28h2.079zM486.516 118.932h-2.079l.001-2.28h2.079zM480.392 122.454h-2.078l.001-2.28h2.078zM483.51 122.455h-2.078v-2.28h2.08zM486.515 122.456h-2.079l.001-2.28h2.08zM480.392 125.77h-2.078v-2.28h2.078z"/>
        <path fill="#8A8A92" d="M483.51 125.77h-2.078v-2.28h2.078z"/>
        <path fill="#565661" d="M486.515 125.77h-2.079v-2.28h2.08zM480.392 129.293h-2.078v-2.28h2.078zM483.51 129.294h-2.08l.002-2.28h2.078zM486.514 129.294h-2.078v-2.28h2.08zM480.392 132.83h-2.08l.002-2.281h2.078zM483.51 132.83h-2.08v-2.28h2.08zM486.514 132.83h-2.08l.002-2.28h2.079zM480.39 136.351h-2.077v-2.278h2.078zM481.43 136.352h2.079v-2.279h-2.079zM486.514 136.353h-2.08v-2.28h2.08z"/>
        <path fill="#8A8A92" d="M480.39 139.668h-2.078v-2.28h2.079z"/>
        <path fill="#565661" d="M483.508 139.668h-2.079v-2.28h2.08zM486.513 139.669h-2.079v-2.28h2.08zM480.39 143.19h-2.079v-2.28h2.079z"/>
        <path fill="#8A8A92" d="M483.508 143.19h-2.08l.001-2.28h2.079z"/>
        <path fill="#565661" d="M486.512 143.191h-2.079l.001-2.28h2.079zM480.389 146.721h-2.078v-2.28h2.078zM481.428 146.722h2.08v-2.28h-2.08zM486.512 146.722h-2.079v-2.28h2.079zM480.388 150.244h-2.078l.001-2.28h2.078zM483.506 150.244h-2.079l.001-2.28h2.079zM486.511 150.245h-2.079l.001-2.28h2.079zM480.388 153.558h-2.079l.001-2.279h2.078z"/>
        <path fill="#8A8A92" d="M483.506 153.558h-2.08l.001-2.278h2.08z"/>
        <path fill="#565661" d="M486.51 153.56h-2.078v-2.28h2.08zM480.387 157.082h-2.078v-2.28h2.078zM483.505 157.083h-2.079v-2.28h2.08zM486.51 157.083h-2.078v-2.28h2.078zM483.504 160.361h-2.078v-2.28h2.08zM486.51 160.362h-2.08l.002-2.28h2.078zM480.387 163.882h-2.078v-2.28h2.078zM483.504 163.882h-2.08l.002-2.28h2.078zM486.509 163.883h-2.078v-2.28h2.079zM480.386 167.42h-2.078v-2.281h2.078z"/>
        <path fill="#8A8A92" d="M483.504 167.42h-2.08v-2.28h2.08z"/>
        <path fill="#565661" d="M486.509 167.42h-2.08v-2.28h2.08zM480.385 170.941h-2.078v-2.278h2.079zM483.503 170.942h-2.079v-2.279h2.08zM486.508 170.943h-2.079v-2.279h2.08zM480.385 174.256h-2.078v-2.279h2.078zM483.503 174.257h-2.079v-2.279h2.079z"/>
        <path fill="#A4999E" d="M486.508 174.257h-2.079v-2.278h2.079z"/>
        <path fill="#565661" d="M480.384 177.78h-2.078v-2.28h2.078zM483.502 177.78h-2.079v-2.28h2.079z"/>
        <path fill="#8A8A92" d="M486.507 177.78h-2.079v-2.28h2.079z"/>
        <path fill="#565661" d="M480.383 181.311h-2.078l.001-2.28h2.078zM483.501 181.312h-2.079l.001-2.28h2.079zM486.506 181.313h-2.079l.001-2.28h2.079z"/>
        <path fill="#00525C" d="M225.938 192.612c-2.43.004-1.411-13.215.469-13.45 1.47-.185 2.882.496 3.713 1.976 1.846 3.295 3.46 11.46-4.182 11.474"/>
        <path fill="#005E63" d="M225.938 192.612c-2.43.004-6.065-2.656-4.345-8.364.962-3.203 2.935-4.85 4.814-5.086-.005 2.775-.007 9.023-.04 13.441-.139.005-.283.009-.43.009"/>
        <path fill="#684500" d="M225.852 197.52l.117-6.635-.974-2.356 1.002 1.742.409-6.222.22 6.836 1.116-1.5-1.03 2.285.086 5.85z"/>
        <path fill="#00525C" d="M103.17 190.011c-3.705.007-2.15-20.144.715-20.503 2.24-.28 4.395.757 5.66 3.012 2.814 5.025 5.275 17.47-6.375 17.491"/>
        <path fill="#005E63" d="M103.17 190.011c-3.705.007-9.244-4.05-6.626-12.75 1.469-4.882 4.476-7.394 7.34-7.753-.008 4.23-.01 13.76-.057 20.489-.215.008-.433.014-.657.014"/>
        <path fill="#684500" d="M103.04 197.494l.177-10.115-1.483-3.59 1.525 2.655.624-9.487.337 10.422 1.7-2.284-1.57 3.48.13 8.92z"/>
        <path fill="#00525C" d="M195.534 189.293c-4.07.006-2.363-22.132.785-22.527 2.462-.308 4.829.832 6.22 3.31 3.092 5.52 5.796 19.195-7.005 19.217"/>
        <path fill="#005E63" d="M195.534 189.293c-4.07.006-10.157-4.449-7.28-14.01 1.614-5.363 4.917-8.122 8.065-8.517-.009 4.647-.01 15.117-.064 22.512-.236.011-.476.015-.721.015"/>
        <path fill="#684500" d="M195.39 197.515l.195-11.113-1.63-3.946 1.678 2.918.685-10.424.37 11.452 1.868-2.51-1.725 3.823.141 9.8z"/>
        <path fill="#7A7A82" d="M353.464 68.964c.001-7.755-6.3-14.044-14.074-14.045-7.774 0-14.077 6.285-14.078 14.04-.002 7.756 6.3 14.043 14.074 14.044 7.774.002 14.077-6.284 14.078-14.04"/>
        <path fill="#565661" d="M353.464 68.964c.001-7.755-6.3-14.044-14.074-14.045.038 9.368-.002 17.142-.004 28.084 7.774.002 14.077-6.284 14.078-14.04"/>
        <path fill="#A4999E" d="M358.89 150.664l-39.031-.006.013-79.147 39.03.006z"/>
        <path fill="#606066" d="M357.004 86.41l.002-13.19-35.236-.006-.003 13.19h-3.817l-.015 95.527h3.817l35.236.007h3.816l.016-95.527zM353.464 71.517l-28.154-.005.001-2.553 28.153.005z"/>
        <path fill="#51515B" d="M321.552 91.296h-2.003l.001-3.35h2.003zM325.25 91.297h-2.003v-3.35h2.003zM329.023 91.298h-2.003l.001-3.35h2.003zM332.72 91.298h-2.003l.001-3.35h2.003z"/>
        <path fill="#8A8A92" d="M336.727 91.298h-2.003l.001-3.35h2.003z"/>
        <path fill="#51515B" d="M340.425 91.3h-2.004v-3.35h2.005zM344.198 91.3h-2.002v-3.35h2.002zM347.896 91.3h-2.004l.001-3.35h2.004zM321.552 95.69h-2.003v-3.347h2.003zM325.25 95.691h-2.003v-3.348h2.002zM329.023 95.692h-2.003v-3.348h2.003z"/>
        <path fill="#A4999E" d="M332.72 95.693h-2.003v-3.348h2.003z"/>
        <path fill="#51515B" d="M334.724 95.693h2.003v-3.348h-2.003zM340.425 95.694h-2.004v-3.348h2.004zM342.196 95.694h2.002v-3.348h-2.002zM347.896 95.695h-2.004v-3.348h2.004z"/>
        <path fill="#8A8A92" d="M351.747 91.3h-2.002l.001-3.349h2.002z"/>
        <path fill="#51515B" d="M355.444 91.302h-2.002v-3.35h2.003zM359.22 91.302h-2.003v-3.35h2.004z"/>
        <path fill="#8A8A92" d="M351.747 95.696h-2.002v-3.348h2.002z"/>
        <path fill="#51515B" d="M355.444 95.696h-2.002v-3.348h2.002zM359.22 95.697h-2.003v-3.348h2.003zM321.551 100.152h-2.003v-3.35h2.003zM325.248 100.153h-2.002v-3.35h2.002zM327.02 100.153h2.002v-3.35h-2.003zM332.72 100.154h-2.003v-3.35h2.002zM334.723 100.154h2.003v-3.35h-2.003zM340.424 100.155h-2.004v-3.35h2.004zM344.197 100.156h-2.002v-3.35h2.002zM347.895 100.156h-2.004v-3.35h2.004zM321.55 104.547h-2.002v-3.35h2.003zM325.248 104.547h-2.003v-3.35h2.003zM329.021 104.548h-2.003l.001-3.35h2.003zM332.718 104.549h-2.002v-3.35h2.003zM336.725 104.55h-2.002v-3.35h2.003zM340.423 104.55h-2.004v-3.35h2.004z"/>
        <path fill="#8A8A92" d="M344.196 104.55h-2.002l.001-3.35h2.002z"/>
        <path fill="#51515B" d="M347.894 104.551h-2.003v-3.35h2.004zM351.746 100.157h-2.002v-3.35h2.002zM355.443 100.158h-2.002v-3.35h2.002zM325.252 78.054h-2.003l.001-3.35h2.003zM329.025 78.055h-2.002v-3.35h2.003zM332.723 78.056h-2.003v-3.35h2.003zM336.73 78.056h-2.003v-3.35h2.003zM340.428 78.057h-2.005l.001-3.35h2.004zM344.2 78.057h-2.002l.001-3.35h2.002zM347.898 78.058h-2.003v-3.35h2.004zM325.251 82.448h-2.003l.001-3.349h2.003zM329.024 82.449h-2.002v-3.35h2.003z"/>
        <path fill="#8A8A92" d="M332.722 82.45h-2.003l.001-3.35h2.003z"/>
        <path fill="#51515B" d="M336.728 82.45h-2.002V79.1h2.003zM340.427 82.45h-2.005l.001-3.348h2.005zM344.2 82.451h-2.002v-3.349h2.002zM347.897 82.452h-2.003v-3.349h2.004zM351.75 78.059h-2.002v-3.35h2.002zM355.447 78.06h-2.003l.001-3.35h2.003zM351.749 82.452h-2.002v-3.349h2.002zM355.446 82.453h-2.003l.001-3.349h2.003zM325.25 86.91h-2.003l.001-3.348h2.003zM329.024 86.91h-2.003v-3.348h2.003zM332.72 86.91h-2.002l.001-3.347h2.003zM336.728 86.911h-2.003v-3.348h2.003zM340.426 86.912h-2.005l.001-3.348h2.005z"/>
        <path fill="#A4999E" d="M344.198 86.912h-2.001v-3.348h2.002z"/>
        <path fill="#51515B" d="M347.897 86.913h-2.004v-3.348h2.004zM351.748 86.914h-2.002v-3.348h2.003zM355.445 86.914h-2.003l.001-3.348h2.003zM359.22 100.158h-2.004v-3.35h2.003zM351.745 104.552h-2.002l.001-3.35h2.002zM355.443 104.552h-2.003v-3.35h2.003z"/>
        <path fill="#8A8A92" d="M359.219 104.553h-2.004l.001-3.35h2.003z"/>
        <path fill="#51515B" d="M321.55 109.008h-2.003v-3.35h2.003z"/>
        <path fill="#A4999E" d="M325.247 109.009h-2.003l.001-3.35h2.003z"/>
        <path fill="#51515B" d="M329.02 109.01h-2.002v-3.351h2.003z"/>
        <path fill="#8A8A92" d="M332.718 109.01h-2.003v-3.35h2.003z"/>
        <path fill="#51515B" d="M336.724 109.01h-2.002v-3.35h2.003zM340.422 109.011h-2.004l.001-3.35h2.004zM344.195 109.012h-2.002l.001-3.35h2.002zM347.893 109.013h-2.003v-3.351h2.004zM321.549 113.402h-2.003v-3.348h2.003zM325.246 113.403h-2.003l.001-3.348h2.003z"/>
        <path fill="#8A8A92" d="M329.02 113.403h-2.003v-3.348h2.003z"/>
        <path fill="#51515B" d="M332.717 113.404h-2.003v-3.348h2.004zM336.723 113.404h-2.002v-3.348h2.003zM340.422 113.405h-2.005l.001-3.348h2.005zM344.194 113.406h-2.002l.001-3.348h2.002zM347.892 113.406h-2.003v-3.348h2.004z"/>
        <path fill="#A4999E" d="M351.744 109.013h-2.001v-3.35h2.002z"/>
        <path fill="#51515B" d="M355.442 109.013h-2.003l.001-3.35h2.003zM359.218 109.014h-2.004l.001-3.35h2.004z"/>
        <path fill="#8A8A92" d="M351.744 113.407h-2.002v-3.348h2.002z"/>
        <path fill="#51515B" d="M355.44 113.408h-2.002l.001-3.348h2.003zM359.217 113.408h-2.004l.001-3.348h2.004zM321.548 117.864h-2.003l.001-3.348h2.003zM325.245 117.864h-2.002v-3.348h2.003zM329.019 117.864h-2.003v-3.348h2.003zM332.716 117.865h-2.003l.001-3.348h2.003zM336.723 117.866h-2.003v-3.348h2.003zM340.42 117.867h-2.004l.001-3.348h2.005zM344.193 117.867h-2.001v-3.348h2.002zM347.892 117.868h-2.004l.001-3.348h2.003zM321.548 122.26h-2.004l.001-3.35h2.003zM325.244 122.26h-2.001v-3.35h2.002zM329.019 122.26h-2.004v-3.35h2.004zM332.715 122.26h-2.002v-3.349h2.003z"/>
        <path fill="#A4999E" d="M336.722 122.261h-2.003l.001-3.35h2.003z"/>
        <path fill="#51515B" d="M340.42 122.262h-2.004v-3.35h2.005zM344.193 122.262h-2.002v-3.35h2.002zM347.89 122.263h-2.002v-3.35h2.004zM351.743 117.868h-2.002v-3.348h2.003zM355.44 117.869h-2.002v-3.348h2.003zM359.216 117.87h-2.003v-3.349h2.004z"/>
        <path fill="#A4999E" d="M351.743 122.264h-2.002v-3.35h2.002z"/>
        <path fill="#8A8A92" d="M355.44 122.265h-2.002v-3.35h2.002z"/>
        <path fill="#51515B" d="M359.215 122.265h-2.002v-3.35h2.003zM321.547 126.72h-2.003v-3.35h2.003zM325.244 126.72h-2.002v-3.349h2.002zM329.018 126.72h-2.003v-3.348h2.003zM332.715 126.721h-2.003v-3.349h2.003zM334.719 126.722h2.003v-3.349h-2.003zM340.42 126.723h-2.004v-3.35h2.004zM342.191 126.723h2.002v-3.349h-2.002zM347.89 126.724h-2.003v-3.349h2.004zM321.546 131.116h-2.002v-3.35h2.002z"/>
        <path fill="#8A8A92" d="M325.243 131.116h-2.002v-3.35h2.002z"/>
        <path fill="#51515B" d="M327.014 131.117h2.003v-3.35h-2.003zM332.714 131.118h-2.002v-3.35h2.002z"/>
        <path fill="#8A8A92" d="M334.718 131.118h2.003v-3.35h-2.003z"/>
        <path fill="#51515B" d="M340.42 131.119h-2.005v-3.35h2.004zM344.192 131.12h-2.002v-3.35h2.002zM347.89 131.12h-2.004v-3.35h2.004z"/>
        <path fill="#8A8A92" d="M351.742 126.724h-2.002v-3.349h2.002z"/>
        <path fill="#51515B" d="M355.44 126.725h-2.003v-3.349h2.002zM359.215 126.725h-2.003v-3.348h2.003zM351.741 131.12h-2.002v-3.35h2.002z"/>
        <path fill="#8A8A92" d="M355.438 131.121h-2.002v-3.35h2.002z"/>
        <path fill="#51515B" d="M359.214 131.122h-2.003v-3.35h2.003zM321.545 135.576h-2.002v-3.35h2.003zM325.243 135.576h-2.003v-3.349h2.003zM329.016 135.577h-2.003l.001-3.35h2.003zM332.713 135.577h-2.002v-3.348h2.003z"/>
        <path fill="#A4999E" d="M336.72 135.578h-2.003l.001-3.349h2.003z"/>
        <path fill="#51515B" d="M340.418 135.579h-2.004v-3.35h2.005zM344.19 135.579h-2v-3.349h2.002zM347.889 135.58h-2.003v-3.349h2.004zM321.544 139.971h-2.002v-3.35h2.003zM325.242 139.972h-2.003l.001-3.35h2.003z"/>
        <path fill="#8A8A92" d="M329.015 139.972h-2.002v-3.35h2.003z"/>
        <path fill="#51515B" d="M332.713 139.973h-2.003v-3.35h2.003zM336.72 139.973h-2.003v-3.35h2.003z"/>
        <path fill="#A4999E" d="M340.417 139.974h-2.004l.001-3.35h2.004z"/>
        <path fill="#51515B" d="M344.19 139.975h-2.002l.001-3.351h2.002zM347.888 139.975h-2.003v-3.35h2.004zM351.74 135.58h-2.001v-3.349h2.002zM355.438 135.581h-2.003v-3.349h2.003zM359.214 135.582h-2.004v-3.35h2.004z"/>
        <path fill="#8A8A92" d="M351.74 139.976h-2.002v-3.35h2.002z"/>
        <path fill="#51515B" d="M355.437 139.977h-2.003l.001-3.35h2.003zM359.213 139.977h-2.004l.001-3.35h2.004zM321.544 144.432h-2.003v-3.348h2.003zM325.241 144.432h-2.003l.001-3.348h2.003zM329.014 144.433h-2.002v-3.348h2.003zM332.712 144.433h-2.003l.001-3.348h2.003zM336.718 144.434h-2.002v-3.348h2.003zM340.417 144.435h-2.005l.001-3.348h2.004zM344.19 144.435h-2.003l.001-3.348h2.002zM347.887 144.436h-2.003v-3.348h2.004zM321.543 148.826h-2.003l.001-3.348h2.003zM325.24 148.827h-2.003l.001-3.349h2.003zM329.014 148.827h-2.003v-3.349h2.003zM332.71 148.828h-2.002l.001-3.349h2.003z"/>
        <path fill="#8A8A92" d="M336.718 148.828h-2.003v-3.348h2.003z"/>
        <path fill="#51515B" d="M340.416 148.83h-2.005l.001-3.35h2.005zM344.188 148.83h-2.001v-3.35h2.002zM347.887 148.83h-2.004v-3.348h2.004z"/>
        <path fill="#A4999E" d="M351.739 144.436h-2.002v-3.348h2.002z"/>
        <path fill="#51515B" d="M355.436 144.437h-2.003l.001-3.348h2.003zM359.212 144.438h-2.004l.001-3.348h2.004zM351.738 148.83h-2.002v-3.348h2.003zM355.435 148.831h-2.003l.001-3.348h2.003zM359.211 148.832h-2.003v-3.349h2.004z"/>
        <path fill="#A4999E" d="M321.543 153.287h-2.003v-3.349h2.003z"/>
        <path fill="#51515B" d="M325.24 153.287h-2.003v-3.348h2.003z"/>
        <path fill="#8A8A92" d="M327.01 153.288h2.003v-3.349h-2.002z"/>
        <path fill="#51515B" d="M332.71 153.289h-2.002v-3.35h2.003zM334.715 153.29h2.002v-3.35h-2.002zM340.416 153.29h-2.005v-3.349h2.005zM344.188 153.29h-2.001v-3.349h2.001zM347.887 153.291h-2.004v-3.349h2.004zM321.542 157.682h-2.003v-3.348h2.003zM325.24 157.683h-2.003v-3.348h2.002zM329.013 157.683h-2.003v-3.348l2.003.001zM332.71 157.684h-2.003v-3.348h2.003zM334.714 157.684h2.003v-3.348h-2.003z"/>
        <path fill="#A4999E" d="M340.415 157.685h-2.004v-3.348h2.004zM342.186 157.686h2.002v-3.348h-2.002z"/>
        <path fill="#51515B" d="M347.886 157.687h-2.004v-3.348h2.004zM351.738 153.292h-2.002v-3.35h2.002z"/>
        <path fill="#8A8A92" d="M355.435 153.292h-2.003v-3.348h2.003z"/>
        <path fill="#51515B" d="M359.211 153.293h-2.003v-3.349h2.003zM351.737 157.687h-2.002v-3.348h2.002zM355.434 157.688h-2.002v-3.348h2.002zM359.21 157.688h-2.003v-3.348h2.003z"/>
        <path fill="#A4999E" d="M321.541 162.384h-2.003v-3.349h2.003z"/>
        <path fill="#51515B" d="M325.238 162.384h-2.002v-3.348h2.002zM329.012 162.385h-2.003v-3.349h2.003zM332.71 162.386h-2.003v-3.35h2.002z"/>
        <path fill="#8A8A92" d="M334.713 162.386h2.003v-3.349h-2.003z"/>
        <path fill="#51515B" d="M340.414 162.387h-2.004v-3.349h2.004zM342.185 162.388h2.002v-3.35h-2.002zM347.885 162.388h-2.004v-3.349h2.004zM321.54 166.78h-2.002v-3.35h2.003zM325.238 166.78h-2.003v-3.349h2.003z"/>
        <path fill="#8A8A92" d="M329.011 166.78h-2.003l.001-3.348h2.003z"/>
        <path fill="#51515B" d="M332.708 166.781h-2.002v-3.349h2.003zM336.715 166.782h-2.002v-3.349h2.003zM340.413 166.782h-2.004v-3.348h2.005zM344.186 166.783h-2.002v-3.349h2.003z"/>
        <path fill="#A4999E" d="M347.884 166.784h-2.003v-3.35h2.004z"/>
        <path fill="#51515B" d="M351.736 162.389h-2.002v-3.35h2.002z"/>
        <path fill="#8A8A92" d="M355.433 162.39h-2.002v-3.35h2.002z"/>
        <path fill="#51515B" d="M359.21 162.39h-2.004v-3.349h2.003zM351.735 166.784h-2.002l.001-3.349h2.002z"/>
        <path fill="#8A8A92" d="M355.433 166.785h-2.003v-3.349h2.003z"/>
        <path fill="#A4999E" d="M359.209 166.785h-2.004v-3.348h2.004z"/>
        <path fill="#51515B" d="M321.54 171.24h-2.003v-3.349h2.003zM325.237 171.24h-2.003l.001-3.348h2.003zM329.01 171.24h-2.002v-3.348h2.003zM332.708 171.242h-2.003v-3.35h2.003zM336.714 171.242h-2.002v-3.349h2.003z"/>
        <path fill="#8A8A92" d="M340.412 171.243h-2.004v-3.349h2.005z"/>
        <path fill="#51515B" d="M344.185 171.243h-2.002l.001-3.348h2.002zM347.883 171.244h-2.003v-3.349h2.004zM321.539 175.636h-2.003v-3.351h2.003zM325.236 175.636h-2.003l.001-3.35h2.003zM329.01 175.636h-2.003v-3.35h2.003zM332.707 175.637h-2.003v-3.35h2.004zM336.713 175.638h-2.002v-3.35h2.003zM340.412 175.638h-2.005l.001-3.35h2.004zM344.184 175.639h-2.002l.001-3.35h2.002zM347.882 175.64h-2.003v-3.35h2.004zM351.734 171.245h-2.001v-3.35h2.002zM355.432 171.246h-2.003l.001-3.35h2.003zM359.208 171.246h-2.004l.001-3.349h2.004zM351.734 175.64h-2.002v-3.35h2.002zM355.43 175.641h-2.002l.001-3.35h2.003zM359.207 175.641h-2.004l.001-3.35h2.004z"/>
        <path fill="#A4999E" d="M321.538 180.097h-2.003l.001-3.349h2.003z"/>
        <path fill="#51515B" d="M325.235 180.097h-2.002v-3.348h2.003zM329.009 180.098h-2.003v-3.35h2.003z"/>
        <path fill="#8A8A92" d="M332.706 180.099h-2.003l.001-3.35h2.003zM336.713 180.1h-2.003v-3.35h2.003z"/>
        <path fill="#51515B" d="M340.41 180.1h-2.004l.001-3.349h2.005zM344.183 180.1h-2.001v-3.349h2.002z"/>
        <path fill="#A4999E" d="M347.882 180.101h-2.004v-3.349h2.004z"/>
        <path fill="#51515B" d="M351.733 180.102h-2.002v-3.35h2.003zM355.43 180.102h-2.003l.001-3.349h2.003zM359.206 180.103h-2.003v-3.349h2.004z"/>
        <path fill="#565661" d="M423.864 197.552l-98.68-.016.006-29.514 98.68.015z"/>
        <path fill="#8A8A92" d="M325.872 197.536l-26.43-.004.009-50.087 26.43.004z"/>
        <path fill="#565661" d="M323.162 158.524l-20.996-.003v-.937l20.996.003zM323.162 160.744l-20.997-.003v-.937l20.997.003zM323.162 163.288l-20.997-.003v-.937l20.997.003zM323.16 165.508l-20.996-.003v-.939l20.997.004zM323.16 168.021l-20.996-.003v-.937l20.997.004zM323.16 170.24l-20.997-.003v-.936l20.998.004zM323.16 172.52l-20.997-.003v-.937l20.997.003zM323.159 174.74l-20.996-.003v-.937l20.997.004zM323.159 177.253l-20.996-.004v-.936l20.996.003zM323.159 179.473l-20.996-.003v-.937l20.996.003zM323.163 151.593l-20.996-.003v-.937l20.996.003zM323.163 153.813l-20.997-.003v-.937l20.997.003zM323.158 184.157l-20.996-.003v-.937l20.996.003zM323.157 186.378l-20.996-.003v-.937l20.996.003zM323.157 188.924l-20.996-.004v-.937l20.996.004zM323.156 191.142l-20.996-.003v-.935l20.997.003zM323.156 193.655l-20.996-.004v-.935l20.996.003zM323.156 195.877l-20.997-.004.001-.939 20.996.004z"/>
        <path fill="#8A8A92" d="M323.162 155.925l-20.996-.003v-.937l20.996.003z"/>
        <path fill="#FFD63F" d="M290.035 180.145h-.952l.004-24.947h.952zM295.793 180.146h-.952l.004-23.217h.952zM301.935 180.147h-.952l.004-21.488h.952zM307.691 180.148h-.952l.004-19.37h.952zM477.61 180.175h-.953l.004-24.948h.954z"/>
        <path fill="#A4999E" d="M483.367 180.176h-.952l.005-23.217h.952zM489.51 180.177h-.953l.004-21.489.952.001z"/>
        <path fill="#FFD63F" d="M313.287 180.149h-.953l.003-18.372h.953zM319.044 180.15h-.953l.003-15.95h.952zM325.187 180.15h-.953l.002-16.075h.955zM330.943 180.152h-.95l.002-15.038h.95zM336.617 180.152h-.952l.003-14.124h.952zM342.375 180.154h-.953l.002-12.706h.953zM348.516 180.154h-.952l.003-12.011h.952zM354.275 180.155h-.953l.001-10.867h.953zM359.87 180.156h-.953l.002-10.867h.952zM365.626 180.157h-.953l.002-10.867h.953zM371.768 180.158h-.954l.002-10.867h.955zM377.526 180.16h-.953l.001-10.868h.954zM382.96 180.16h-.952l.002-10.867h.952zM388.718 180.16h-.954l.003-10.866h.953zM394.86 180.162h-.951l.002-10.867h.952zM400.616 180.163h-.953l.003-12.013.953.001zM406.212 180.164h-.953l.003-12.706h.953zM411.97 180.165h-.954l.003-14.125h.953zM418.111 180.165h-.953l.003-15.037h.953zM423.867 180.167h-.95l.002-16.077.951.001zM429.54 180.167h-.951l.002-15.95h.952zM435.3 180.168h-.955l.004-18.372h.954zM441.442 180.17h-.953l.003-19.371h.954zM447.198 180.17h-.953l.005-21.488h.952zM452.794 180.171h-.953l.004-23.217h.953zM458.55 180.172h-.952l.004-24.948h.953zM260.634 180.14h-.953l.004-21.487h.953zM266.229 180.141h-.954l.004-23.217h.954zM271.986 180.142h-.953l.004-24.947h.954zM492.137 158.411c-8.343-2.666-15.661-5.809-21.676-9.322l-6.152-.001c7.15 4.965 16.625 9.326 27.828 12.843v-3.52z"/>
        <path fill="#FFD63F" d="M258.302 161.328c10.435-3.413 19.3-7.567 26.075-12.269h-6.152c-5.589 3.264-12.307 6.203-19.923 8.74v3.53zM492.133 181.78l-233.834-.038v-3.2l233.835.037z"/>
        <path fill="#FFD63F" d="M463.591 149.088c-19.483 11.372-52.589 18.851-90.152 18.845-37.563-.005-70.665-7.494-90.146-18.874h-6.154c19.194 13.329 55.131 22.304 96.3 22.31 41.168.006 77.108-8.956 96.306-22.28h-6.154z"/>
        <path fill="#EDC430" d="M471.488 197.697l-9-.002.009-50.236 4.5-6.532 4.5 6.534zM285.425 197.667l-8.999-.001.009-50.236 4.5-6.532 4.498 6.533z"/>
        <path fill="#00525C" d="M267.165 190.81c-3.324.006-1.93-18.078.64-18.402 2.012-.25 3.945.68 5.081 2.704 2.526 4.509 4.735 15.68-5.72 15.698"/>
        <path fill="#005E63" d="M267.165 190.81c-3.324.006-8.297-3.632-5.947-11.443 1.318-4.382 4.017-6.635 6.588-6.959-.008 3.797-.009 12.348-.052 18.39-.192.009-.39.012-.589.012"/>
        <path fill="#684500" d="M267.047 197.527l.16-9.08-1.332-3.222 1.37 2.385.56-8.515.302 9.352 1.527-2.049-1.41 3.123.116 8.006z"/>
        <path fill="#8A8A92" d="M540.374 150.628l-60.583-.01v-3.215l60.583.01zM540.366 197.57l-60.582-.01.002-16.35 60.583.009z"/>
        <path fill="#9B9BA2" d="M538.976 150.628l-57.786-.01v.965l57.786.01z"/>
        <path fill="#606066" d="M533.697 181.218l-47.132-.007.006-29.627 47.131.008z"/>
        <path fill="#565661" d="M486.566 181.21h-6.134l.005-29.627 6.134.002z"/>
        <path fill="#8A8A92" d="M508.194 181.214h-3.982l.005-29.627 3.983.001zM500.984 181.213h-3.98l.004-29.627h3.982zM493.883 181.212h-3.982l.004-29.627h3.983zM530.253 181.218h-3.98l.005-29.628 3.98.001zM523.044 181.217l-3.98-.001.004-29.626h3.981zM515.942 181.215h-3.982l.004-29.627 3.983.001z"/>
        <path fill="#565661" d="M539.83 181.22l-6.133-.002.005-29.626h6.134z"/>
        <path fill="#8A8A92" d="M473.849 147.403l36.076-18.685 36.07 18.696z"/>
        <path fill="#565661" d="M480.008 145.9l29.916-15.495 29.913 15.505z"/>
        <path fill="#51515B" d="M487.067 185.324c-.951 0-1.722.77-1.722 1.72l-.002 10.518h3.445l.002-10.517c0-.95-.772-1.72-1.723-1.72M494.814 185.326c-.95 0-1.721.77-1.721 1.719l-.002 10.518h3.445l.001-10.517c0-.95-.772-1.72-1.723-1.72M502.079 185.327c-.951 0-1.723.77-1.723 1.72l-.002 10.517h3.445l.002-10.517c0-.95-.772-1.72-1.722-1.72M509.798 185.328c-.95 0-1.72.77-1.72 1.72l-.003 10.517h3.444l.002-10.517c0-.95-.773-1.72-1.723-1.72M517.34 185.329a1.72 1.72 0 0 0-1.722 1.72l-.002 10.517 3.445.001.002-10.518c0-.949-.772-1.72-1.723-1.72M524.765 185.33c-.95 0-1.722.77-1.722 1.72l-.002 10.517 3.445.001.001-10.518c0-.948-.772-1.72-1.722-1.72M532.459 185.332c-.95 0-1.721.77-1.721 1.719l-.002 10.518h3.444l.001-10.517c0-.95-.771-1.72-1.722-1.72"/>
        <path fill="#00525C" d="M446.125 191.232c-3.13.006-1.816-17.018.603-17.32 1.894-.238 3.715.638 4.782 2.544 2.379 4.244 4.46 14.758-5.385 14.776"/>
        <path fill="#005E63" d="M446.125 191.232c-3.13.006-7.81-3.421-5.597-10.77 1.24-4.127 3.78-6.248 6.2-6.55-.007 3.571-.008 11.62-.049 17.306-.18.01-.365.014-.554.014"/>
        <path fill="#684500" d="M446.015 197.555l.15-8.548-1.254-3.03 1.29 2.24.526-8.013.286 8.803 1.436-1.929-1.327 2.943.11 7.534z"/>
        <path fill="#00525C" d="M542.932 189.348c-4.071.006-2.364-22.132.783-22.527 2.464-.308 4.831.832 6.22 3.31 3.092 5.521 5.797 19.195-7.003 19.217"/>
        <path fill="#005E63" d="M542.932 189.348c-4.071.006-10.158-4.449-7.28-14.01 1.614-5.363 4.916-8.122 8.063-8.517-.007 4.647-.009 15.118-.062 22.512a15.35 15.35 0 0 1-.72.015"/>
        <path fill="#684500" d="M542.79 197.57l.192-11.114-1.629-3.945 1.676 2.918.685-10.424.372 11.452 1.867-2.51-1.724 3.824.14 9.8z"/>
        <path fill="#00525C" d="M561.867 191.44c-3.037.006-1.764-16.507.586-16.802 1.835-.23 3.602.621 4.638 2.47 2.307 4.118 4.323 14.316-5.224 14.332"/>
        <path fill="#005E63" d="M561.867 191.44c-3.037.006-7.577-3.316-5.43-10.447 1.204-4.002 3.666-6.06 6.016-6.353-.006 3.466-.008 11.273-.05 16.79-.175.01-.353.01-.536.01"/>
        <path fill="#684500" d="M561.762 197.573l.143-8.29-1.215-2.94 1.25 2.174.512-7.773.275 8.54 1.394-1.872-1.287 2.852.106 7.31z"/>
        <path fill="#00525C" d="M474.046 188.395c-4.535.01-2.633-24.666.874-25.105 2.746-.342 5.382.928 6.93 3.69 3.45 6.152 6.461 21.39-7.804 21.415"/>
        <path fill="#005E63" d="M474.046 188.395c-4.535.01-11.319-4.956-8.113-15.61 1.798-5.978 5.48-9.056 8.987-9.493-.007 5.18-.01 16.847-.072 25.087-.26.013-.528.016-.802.016"/>
        <path fill="#684500" d="M473.887 197.56l.216-12.388-1.816-4.395 1.87 3.251.762-11.615.414 12.76 2.081-2.795-1.924 4.26.16 10.922z"/>
        <path fill="#565661" d="M331.249 186.36c-1.03 0-1.865.69-1.865 1.54l-.002 9.433h3.727l.002-9.434c0-.849-.835-1.54-1.862-1.54M337.81 186.36c-1.03 0-1.865.69-1.865 1.54l-.002 9.433h3.726l.002-9.432c0-.85-.834-1.54-1.861-1.54M344.85 186.362c-1.03 0-1.864.69-1.864 1.539l-.002 9.433 3.727.001.002-9.433c0-.849-.836-1.54-1.862-1.54M351.413 186.363c-1.03 0-1.865.69-1.865 1.539l-.002 9.433 3.726.001.002-9.433c0-.85-.835-1.54-1.861-1.54M358.469 186.364c-1.031 0-1.866.69-1.866 1.54l-.002 9.432 3.727.001.002-9.433c0-.849-.835-1.54-1.861-1.54M365.03 186.365c-1.031 0-1.866.69-1.866 1.539l-.002 9.433 3.727.001.002-9.433c0-.85-.835-1.54-1.861-1.54M372.07 186.366c-1.028 0-1.864.69-1.864 1.54l-.002 9.433h3.727l.002-9.433c0-.849-.837-1.54-1.862-1.54M378.633 186.367c-1.031 0-1.864.691-1.864 1.54l-.002 9.433h3.724l.002-9.433c0-.849-.835-1.54-1.86-1.54M385.17 186.368c-1.03 0-1.865.69-1.865 1.54l-.002 9.433h3.726l.002-9.433c0-.849-.834-1.54-1.862-1.54M391.732 186.37c-1.032 0-1.865.69-1.865 1.539l-.002 9.433h3.726l.002-9.433c0-.849-.835-1.54-1.86-1.54M398.787 186.37c-1.03 0-1.865.69-1.865 1.54l-.002 9.433h3.727l.002-9.433c0-.849-.835-1.54-1.862-1.54M405.348 186.372c-1.03 0-1.865.69-1.865 1.539l-.002 9.433h3.727l.002-9.433c0-.848-.834-1.54-1.862-1.54M412.39 186.372c-1.03 0-1.864.691-1.864 1.54l-.002 9.434h3.726l.002-9.434c0-.849-.835-1.54-1.863-1.54M418.95 186.374c-1.029 0-1.863.69-1.863 1.539l-.001 9.433h3.725l.002-9.432c0-.85-.835-1.54-1.862-1.54"/>
    </g>
</svg>
