<svg height="320" viewBox="0 0 897 320" width="897" xmlns="http://www.w3.org/2000/svg" xmlns:xlink="http://www.w3.org/1999/xlink"><linearGradient id="a" x1="50%" x2="50%" y1="0%" y2="100%"><stop offset="0" stop-color="#8bc0ff"/><stop offset="1" stop-color="#0058e6"/></linearGradient><linearGradient id="b" x1="50%" x2="50%" y1="0%" y2="100%"><stop offset="0" stop-color="#0169fc"/><stop offset="1" stop-color="#014be2"/></linearGradient><linearGradient id="c" x1="50%" x2="50%" y1="0%" y2="100%"><stop offset="0" stop-color="#014be2"/><stop offset="1" stop-color="#016afe"/></linearGradient><radialGradient id="d" cx="50%" cy="25.890257%" r="75.009833%"><stop offset="0" stop-color="#ff474d"/><stop offset="1" stop-color="#500401"/></radialGradient><g fill="none" fill-rule="evenodd" transform="translate(6 6)"><g fill-rule="nonzero"><rect fill="#e9e7d8" height="308" rx="8" stroke="#014be2" stroke-width="12" width="885"/><path d="m3 2h879v78h-879z" fill="#014be2"/><path d="m0 0h885v10h-885z" fill="url(#a)"/><path d="m0 67h885v8h-885z" fill="url(#b)"/><path d="m0 41h885v26h-885z" fill="url(#c)"/></g><g transform="translate(39 100)"><circle cx="39" cy="39" fill="#000" fill-rule="nonzero" r="39"/><circle cx="39" cy="39" fill="url(#d)" r="39" stroke="#a20000" stroke-width="4"/></g><path d="m61.265625 122.265625 33.46875 33.46875" fill="#fff" fill-rule="nonzero" stroke="#fff" stroke-linecap="square" stroke-width="11"/><path d="m95 122-34 34" fill="#fff" fill-rule="nonzero" stroke="#fff" stroke-linecap="square" stroke-width="11"/><rect fill="#7b6c70" fill-rule="nonzero" height="54" rx="8" stroke="#979797" width="54" x="813" y="12"/><path d="m827.210938 27.210938 26.578124 26.578125" stroke="#a39498" stroke-linecap="square" stroke-width="6"/><path d="m854 27-27 27" stroke="#a39498" stroke-linecap="square" stroke-width="6"/><text fill="#000" fill-rule="nonzero" font-family="ArialMT, Arial" font-size="32"><tspan x="152" y="143">Move this window to start drawing!</tspan></text><path d="m667 219h160v54h-160z" fill="#000" fill-rule="nonzero"/><path d="m667 219h160v54h-160z" fill="#e9e7d8" fill-rule="nonzero"/><path d="m667 219h160v54h-160z" stroke="#979797" stroke-width="2"/><text fill="#fff" fill-rule="nonzero" font-family="ArialRoundedMTBold, Arial Rounded MT Bold" font-size="43"><tspan x="24" y="55">Drag me</tspan></text><text fill="#969696" fill-rule="nonzero" font-family="ArialMT, Arial" font-size="32"><tspan x="724" y="257">OK</tspan></text></g></svg>